<svg xmlns="http://www.w3.org/2000/svg" xmlns:xlink="http://www.w3.org/1999/xlink" width="500" zoomAndPan="magnify" viewBox="0 0 375 374.999991" height="500" preserveAspectRatio="xMidYMid meet" version="1.0"><defs><filter x="0%" y="0%" width="100%" height="100%" id="277f968210"><feColorMatrix values="0 0 0 0 1 0 0 0 0 1 0 0 0 0 1 0 0 0 1 0" color-interpolation-filters="sRGB"/></filter><g/><mask id="b52d41d56e"><g filter="url(#277f968210)"><rect x="-37.5" width="450" fill="#000000" y="-37.499999" height="449.999989" fill-opacity="0.3"/></g></mask><clipPath id="01a896034e"><path d="M 0.957031 0 L 260 0 L 260 244.601562 L 0.957031 244.601562 Z M 0.957031 0 " clip-rule="nonzero"/></clipPath><clipPath id="5ac649a4f3"><path d="M 130.476562 -18.492188 C 58.945312 -18.492188 0.957031 40.292969 0.957031 112.8125 C 0.957031 185.328125 58.945312 244.117188 130.476562 244.117188 C 202.011719 244.117188 260 185.328125 260 112.8125 C 260 40.292969 202.011719 -18.492188 130.476562 -18.492188 Z M 130.476562 -18.492188 " clip-rule="nonzero"/></clipPath><clipPath id="69dcc942a0"><rect x="0" width="260" y="0" height="245"/></clipPath><clipPath id="fc6fe50637"><path d="M 152 304 L 284 304 L 284 370.527344 L 152 370.527344 Z M 152 304 " clip-rule="nonzero"/></clipPath><clipPath id="5076b5014b"><path d="M 72 127 L 330.75 127 L 330.75 327 L 72 327 Z M 72 127 " clip-rule="nonzero"/></clipPath><clipPath id="3d4d2b8378"><path d="M 41.25 116 L 101 116 L 101 231 L 41.25 231 Z M 41.25 116 " clip-rule="nonzero"/></clipPath><clipPath id="b417516b77"><path d="M 41.25 134 L 58 134 L 58 148 L 41.25 148 Z M 41.25 134 " clip-rule="nonzero"/></clipPath><mask id="47db779917"><g filter="url(#277f968210)"><rect x="-37.5" width="450" fill="#000000" y="-37.499999" height="449.999989" fill-opacity="0.7"/></g></mask><clipPath id="207c3246aa"><path d="M 0.46875 0.5 L 51.832031 0.5 L 51.832031 21.304688 L 0.46875 21.304688 Z M 0.46875 0.5 " clip-rule="nonzero"/></clipPath><clipPath id="934a44dbbf"><path d="M 10.871094 0.5 L 41.402344 0.5 C 47.148438 0.5 51.804688 5.15625 51.804688 10.902344 C 51.804688 16.648438 47.148438 21.304688 41.402344 21.304688 L 10.871094 21.304688 C 5.125 21.304688 0.46875 16.648438 0.46875 10.902344 C 0.46875 5.15625 5.125 0.5 10.871094 0.5 Z M 10.871094 0.5 " clip-rule="nonzero"/></clipPath><clipPath id="6cd486a42a"><rect x="0" width="52" y="0" height="22"/></clipPath></defs><g mask="url(#b52d41d56e)"><g transform="matrix(1, 0, 0, 1, 115, 0)"><g clip-path="url(#69dcc942a0)"><g clip-path="url(#01a896034e)"><g clip-path="url(#5ac649a4f3)"><path fill="#ffffff" d="M 0.957031 -18.492188 L 260 -18.492188 L 260 244.601562 L 0.957031 244.601562 Z M 0.957031 -18.492188 " fill-opacity="1" fill-rule="nonzero"/></g></g></g></g></g><g clip-path="url(#fc6fe50637)"><path fill="#6b2537" d="M 283.726562 370.390625 L 152.34375 370.390625 L 152.34375 304.796875 L 278.09375 304.796875 C 281.472656 326.664062 282.71875 346.648438 283.726562 370.390625 Z M 283.726562 370.390625 " fill-opacity="1" fill-rule="nonzero"/></g><g clip-path="url(#5076b5014b)"><path fill="#279083" d="M 202.648438 130.957031 C 195.710938 131.171875 189.007812 135.207031 186.519531 141.695312 C 171.238281 145.523438 155.230469 149.742188 143.808594 160.59375 C 138.773438 165.378906 134.890625 171.238281 131.242188 177.152344 C 123.652344 189.445312 116.84375 202.21875 110.726562 215.640625 C 109.195312 214.261719 107.949219 212.5625 107.382812 210.410156 C 94.417969 214.425781 82.542969 221.902344 72.804688 230.386719 C 74.371094 238.796875 75.96875 247.324219 79.675781 255.035156 C 83.382812 262.746094 89.507812 269.679688 97.601562 272.453125 C 104.390625 274.78125 112.023438 273.960938 118.613281 271.105469 C 125.199219 268.253906 130.828125 263.496094 135.554688 258.089844 C 140.28125 252.683594 144.183594 246.617188 147.71875 237.101562 C 147.574219 259.957031 147.433594 282.816406 147.292969 305.671875 C 147.273438 308.90625 147.269531 312.222656 148.410156 315.25 C 149.554688 318.273438 152.113281 320.984375 154.789062 322.699219 C 191.449219 326.042969 228.519531 329.378906 264.941406 324.035156 C 270.019531 323.292969 275.492188 322.152344 278.835938 318.261719 C 285.246094 310.8125 279.917969 298.804688 282.773438 290.199219 C 283.128906 287.453125 283.488281 284.703125 284.746094 281.417969 C 286.65625 281.121094 288.566406 280.820312 291.019531 279.445312 C 291.375 283.210938 291.734375 286.972656 291.957031 291.59375 C 299.121094 291.214844 306.390625 290.667969 313.117188 288.175781 C 319.839844 285.6875 326.054688 280.964844 328.777344 274.328125 C 330.8125 269.371094 330.746094 263.816406 330.292969 258.476562 C 328.496094 237.273438 321.140625 216.988281 313.847656 196.996094 C 308.894531 183.429688 303.558594 169.277344 292.765625 159.679688 C 280.90625 149.136719 264.46875 145.839844 246.992188 144.09375 C 247.4375 140.789062 245.539062 137.519531 242.945312 135.421875 C 240.351562 133.324219 237.136719 132.179688 233.988281 131.074219 C 229.253906 129.40625 224.460938 127.730469 219.472656 127.203125 C 214.480469 126.675781 210.085938 130.726562 202.652344 130.953125 Z M 202.648438 130.957031 " fill-opacity="1" fill-rule="nonzero"/></g><path fill="#6b2537" d="M 177.855469 81.515625 C 174.519531 78.257812 173.285156 73.460938 172.378906 68.886719 C 170.8125 60.988281 169.8125 52.851562 170.996094 44.886719 C 173.261719 29.710938 184.007812 16.085938 198.242188 10.347656 C 212.476562 4.613281 229.667969 6.972656 242.640625 16.582031 C 249.558594 15.390625 256.621094 19.503906 260.503906 25.351562 C 264.390625 31.199219 265.566406 38.449219 265.644531 45.46875 C 265.734375 53.226562 264.5625 61.074219 261.464844 68.1875 C 258.367188 75.300781 253.261719 81.648438 246.550781 85.546875 C 238.941406 89.96875 229.878906 90.996094 221.097656 91.582031 C 206.886719 92.53125 190.664062 94.027344 177.851562 81.515625 Z M 177.855469 81.515625 " fill-opacity="1" fill-rule="nonzero"/><path fill="#ffad95" d="M 180.21875 76.511719 C 178.683594 73.449219 174.597656 72.113281 171.390625 73.324219 C 168.183594 74.53125 166.046875 77.898438 165.882812 81.320312 C 165.714844 84.742188 167.34375 88.109375 169.828125 90.472656 C 172.308594 92.832031 175.578125 94.253906 178.933594 94.953125 C 181.96875 105.835938 189.332031 115.855469 199.363281 120.867188 C 209.390625 125.878906 221.824219 125.753906 231.753906 120.542969 C 241.679688 115.332031 248.84375 105.167969 250.097656 92.15625 C 255.277344 91.671875 260.15625 88.636719 262.875 84.203125 C 263.824219 82.660156 264.527344 80.925781 264.632812 79.117188 C 264.738281 77.304688 264.191406 75.414062 262.921875 74.117188 C 261.515625 72.683594 259.367188 72.128906 257.378906 72.390625 C 255.386719 72.652344 253.550781 73.652344 251.890625 74.765625 C 250.96875 67.25 249.433594 59.808594 247.308594 52.542969 C 247.019531 51.558594 246.683594 50.519531 245.910156 49.847656 C 244.570312 48.691406 242.542969 49.074219 240.8125 49.445312 C 227.398438 52.324219 212.96875 50.175781 200.972656 43.527344 C 198.816406 42.332031 196.371094 40.953125 194.039062 41.742188 C 192.007812 42.429688 190.859375 44.523438 189.953125 46.464844 C 185.722656 55.550781 182.671875 65.183594 180.214844 76.511719 Z M 180.21875 76.511719 " fill-opacity="1" fill-rule="nonzero"/><path fill="#6b2537" d="M 216.832031 89.53125 C 215.878906 89.53125 214.902344 89.214844 214.054688 88.605469 C 212.820312 87.710938 212.082031 86.34375 212.089844 84.953125 C 212.101562 83.261719 213.015625 81.871094 213.824219 80.644531 C 213.984375 80.398438 214.148438 80.15625 214.300781 79.910156 C 216.0625 77.078125 216.761719 73.566406 216.214844 70.273438 C 216.113281 69.667969 216.523438 69.101562 217.125 69 C 217.730469 68.902344 218.300781 69.308594 218.398438 69.914062 C 219.03125 73.726562 218.21875 77.796875 216.175781 81.078125 C 216.015625 81.339844 215.84375 81.601562 215.671875 81.863281 C 214.972656 82.925781 214.308594 83.933594 214.304688 84.96875 C 214.300781 85.644531 214.691406 86.335938 215.351562 86.808594 C 216.011719 87.285156 216.789062 87.441406 217.433594 87.222656 C 218.011719 87.03125 218.640625 87.339844 218.835938 87.917969 C 219.03125 88.5 218.71875 89.125 218.140625 89.320312 C 217.71875 89.460938 217.28125 89.53125 216.835938 89.53125 Z M 216.832031 89.53125 " fill-opacity="1" fill-rule="nonzero"/><path fill="#6b2537" d="M 253.511719 86.976562 C 253.128906 86.976562 252.757812 86.777344 252.550781 86.421875 C 251.566406 84.714844 251.769531 82.363281 253.070312 80.4375 C 254.148438 78.835938 255.734375 77.738281 257.136719 76.769531 C 257.636719 76.421875 258.328125 76.546875 258.675781 77.046875 C 259.023438 77.550781 258.894531 78.238281 258.394531 78.585938 C 257.09375 79.484375 255.75 80.417969 254.902344 81.671875 C 254.222656 82.679688 253.824219 84.199219 254.46875 85.316406 C 254.777344 85.84375 254.59375 86.519531 254.0625 86.824219 C 253.886719 86.925781 253.699219 86.976562 253.511719 86.976562 Z M 253.511719 86.976562 " fill-opacity="1" fill-rule="nonzero"/><path fill="#6b2537" d="M 176.585938 87.796875 C 176.558594 87.796875 176.527344 87.796875 176.5 87.792969 C 175.890625 87.742188 175.433594 87.210938 175.484375 86.601562 C 175.6875 84.082031 174.308594 81.429688 172.128906 80.144531 C 171.601562 79.835938 171.429688 79.15625 171.742188 78.628906 C 172.050781 78.101562 172.730469 77.925781 173.253906 78.238281 C 176.179688 79.964844 177.960938 83.394531 177.691406 86.777344 C 177.644531 87.355469 177.160156 87.796875 176.589844 87.796875 Z M 176.585938 87.796875 " fill-opacity="1" fill-rule="nonzero"/><path fill="#6b2537" d="M 217.695312 104.242188 C 217.578125 104.242188 217.464844 104.242188 217.347656 104.234375 C 213.242188 104.09375 209.367188 101.476562 207.707031 97.722656 C 207.460938 97.164062 207.710938 96.511719 208.269531 96.261719 C 208.828125 96.015625 209.484375 96.269531 209.730469 96.824219 C 211.035156 99.773438 214.199219 101.910156 217.421875 102.023438 C 220.644531 102.132812 223.949219 100.214844 225.449219 97.363281 C 225.734375 96.820312 226.402344 96.613281 226.945312 96.898438 C 227.488281 97.1875 227.695312 97.855469 227.410156 98.394531 C 225.550781 101.925781 221.679688 104.242188 217.695312 104.242188 Z M 217.695312 104.242188 " fill-opacity="1" fill-rule="nonzero"/><path fill="#ffad95" d="M 197.621094 113.082031 C 197.132812 121.503906 196.644531 129.929688 195.40625 137.300781 C 198.347656 145.933594 206.953125 152.320312 216.066406 152.628906 C 225.179688 152.941406 234.203125 147.15625 237.902344 138.90625 C 237.027344 129.519531 236.804688 120.074219 237.292969 111.382812 C 232.089844 107.289062 225.394531 105.132812 218.78125 105.410156 C 212.164062 105.691406 205.679688 108.40625 197.617188 113.078125 Z M 197.621094 113.082031 " fill-opacity="1" fill-rule="nonzero"/><path fill="#6b2537" d="M 202.523438 167.140625 C 200.734375 167.140625 198.988281 166.804688 197.375 166.140625 C 194.371094 164.898438 191.648438 162.46875 189.5 159.113281 C 187.628906 156.191406 186.386719 152.949219 185.1875 149.816406 C 184.96875 149.246094 185.253906 148.605469 185.824219 148.390625 C 186.394531 148.171875 187.035156 148.457031 187.253906 149.027344 C 188.414062 152.054688 189.613281 155.1875 191.363281 157.921875 C 192.6875 159.996094 194.953125 162.746094 198.214844 164.09375 C 203.527344 166.285156 210.433594 163.96875 213.621094 158.929688 C 213.789062 158.660156 214.0625 158.480469 214.375 158.425781 C 214.6875 158.375 215.003906 158.460938 215.25 158.660156 C 220.222656 162.675781 227.355469 163.976562 233.425781 161.96875 C 239.496094 159.964844 244.453125 154.671875 246.050781 148.480469 C 246.203125 147.890625 246.808594 147.535156 247.398438 147.6875 C 247.992188 147.839844 248.347656 148.445312 248.195312 149.035156 C 246.410156 155.933594 240.882812 161.835938 234.121094 164.070312 C 227.730469 166.179688 220.28125 165.007812 214.800781 161.09375 C 213.046875 163.382812 210.484375 165.226562 207.609375 166.246094 C 205.925781 166.839844 204.203125 167.136719 202.519531 167.136719 Z M 202.523438 167.140625 " fill-opacity="1" fill-rule="nonzero"/><path fill="#6b2537" d="M 147.972656 223.023438 C 147.382812 223.023438 146.894531 222.558594 146.867188 221.964844 L 145.40625 188.273438 C 145.378906 187.664062 145.851562 187.144531 146.464844 187.121094 C 147.078125 187.101562 147.589844 187.566406 147.617188 188.179688 L 149.078125 221.871094 C 149.105469 222.480469 148.632812 222.996094 148.019531 223.023438 C 148.003906 223.023438 147.988281 223.023438 147.972656 223.023438 Z M 147.972656 223.023438 " fill-opacity="1" fill-rule="nonzero"/><path fill="#6b2537" d="M 120.328125 241.464844 C 119.828125 241.464844 119.375 241.121094 119.253906 240.617188 C 117.660156 233.945312 115.117188 227.550781 111.691406 221.613281 C 111.382812 221.082031 111.566406 220.40625 112.097656 220.101562 C 112.625 219.796875 113.304688 219.976562 113.609375 220.503906 C 117.140625 226.628906 119.765625 233.222656 121.40625 240.101562 C 121.546875 240.699219 121.179688 241.292969 120.585938 241.4375 C 120.5 241.457031 120.414062 241.464844 120.328125 241.464844 Z M 120.328125 241.464844 " fill-opacity="1" fill-rule="nonzero"/><path fill="#6b2537" d="M 286.613281 251.894531 C 286.058594 251.894531 285.582031 251.476562 285.515625 250.914062 C 283.21875 231 285.632812 210.519531 292.496094 191.683594 C 292.703125 191.109375 293.335938 190.8125 293.914062 191.023438 C 294.484375 191.230469 294.78125 191.867188 294.574219 192.441406 C 287.828125 210.953125 285.457031 231.085938 287.710938 250.660156 C 287.78125 251.265625 287.347656 251.816406 286.738281 251.882812 C 286.699219 251.886719 286.652344 251.890625 286.613281 251.890625 Z M 286.613281 251.894531 " fill-opacity="1" fill-rule="nonzero"/><path fill="#6b2537" d="M 281.207031 256.78125 C 280.867188 256.78125 280.53125 256.625 280.316406 256.332031 C 279.953125 255.84375 280.054688 255.148438 280.546875 254.785156 C 289.855469 247.898438 302.160156 245.28125 313.464844 247.789062 C 314.0625 247.921875 314.4375 248.511719 314.304688 249.109375 C 314.171875 249.707031 313.585938 250.082031 312.988281 249.949219 C 302.300781 247.582031 290.664062 250.054688 281.863281 256.5625 C 281.667969 256.710938 281.4375 256.78125 281.207031 256.78125 Z M 281.207031 256.78125 " fill-opacity="1" fill-rule="nonzero"/><path fill="#fff2d2" d="M 250.394531 308.175781 L 204.226562 299.363281 C 200.875 298.722656 198.941406 295.539062 199.910156 292.25 L 218.898438 227.75 C 219.867188 224.460938 223.367188 222.3125 226.71875 222.953125 L 272.886719 231.761719 C 276.238281 232.402344 278.171875 235.585938 277.203125 238.875 L 258.214844 303.378906 C 257.246094 306.664062 253.746094 308.8125 250.394531 308.175781 Z M 250.394531 308.175781 " fill-opacity="1" fill-rule="nonzero"/><path fill="#ffad95" d="M 287.695312 257.214844 C 290.613281 267.15625 292.488281 277.402344 292.367188 288.277344 C 275.847656 289.167969 259.257812 288.667969 242.289062 286.890625 C 234.230469 293.511719 223.492188 296.761719 213.113281 295.71875 C 211.699219 295.578125 210.21875 295.332031 209.09375 294.457031 C 207.96875 293.585938 207.355469 291.902344 207.796875 289.996094 C 206.394531 289.707031 205.15625 288.722656 204.554688 287.425781 C 203.949219 286.125 204 284.542969 204.988281 282.796875 C 203.265625 282.492188 201.820312 280.992188 201.585938 279.257812 C 201.351562 277.523438 202.34375 275.691406 203.679688 274.9375 C 203.816406 272.160156 206.121094 269.867188 208.71875 268.875 C 211.316406 267.882812 214.179688 267.929688 216.96875 267.550781 C 213.046875 266.015625 210.121094 262.199219 209.648438 258.015625 C 209.480469 256.539062 209.863281 254.671875 211.296875 254.265625 C 212.386719 253.953125 213.46875 254.675781 214.484375 255.1875 C 216.902344 256.402344 219.710938 256.507812 222.417969 256.457031 C 225.121094 256.402344 227.878906 256.222656 230.488281 256.941406 C 233.097656 257.65625 235.589844 259.492188 235.382812 262.664062 C 252.546875 263.027344 269.761719 260.898438 287.699219 257.214844 Z M 287.695312 257.214844 " fill-opacity="1" fill-rule="nonzero"/><path fill="#6b2537" d="M 203.003906 276.210938 C 202.429688 276.210938 201.945312 275.765625 201.902344 275.183594 C 201.859375 274.574219 202.316406 274.042969 202.925781 274 L 213.949219 273.191406 C 214.554688 273.148438 215.089844 273.601562 215.132812 274.210938 C 215.175781 274.820312 214.71875 275.351562 214.109375 275.398438 L 203.085938 276.207031 C 203.058594 276.207031 203.03125 276.210938 203.003906 276.210938 Z M 203.003906 276.210938 " fill-opacity="1" fill-rule="nonzero"/><path fill="#6b2537" d="M 204.046875 283.929688 C 203.445312 283.929688 202.953125 283.449219 202.941406 282.847656 C 202.929688 282.234375 203.414062 281.730469 204.023438 281.71875 L 214.234375 281.519531 C 214.234375 281.519531 214.25 281.519531 214.257812 281.519531 C 214.859375 281.519531 215.351562 282 215.363281 282.605469 C 215.375 283.214844 214.890625 283.71875 214.28125 283.734375 L 204.070312 283.929688 C 204.070312 283.929688 204.054688 283.929688 204.046875 283.929688 Z M 204.046875 283.929688 " fill-opacity="1" fill-rule="nonzero"/><path fill="#6b2537" d="M 207.179688 291.269531 C 206.589844 291.269531 206.097656 290.800781 206.078125 290.203125 C 206.054688 289.589844 206.53125 289.078125 207.140625 289.054688 L 216.65625 288.707031 C 217.265625 288.683594 217.78125 289.164062 217.804688 289.773438 C 217.824219 290.382812 217.347656 290.898438 216.738281 290.917969 L 207.222656 291.265625 C 207.210938 291.265625 207.195312 291.265625 207.179688 291.265625 Z M 207.179688 291.269531 " fill-opacity="1" fill-rule="nonzero"/><g clip-path="url(#3d4d2b8378)"><path fill="#ffad95" d="M 74.59375 230.308594 C 84.46875 228.203125 93.707031 223.207031 100.785156 214.824219 C 91.949219 197.375 83.949219 179.5 76.566406 161.574219 C 79.175781 155.515625 81.839844 149.082031 80.996094 142.539062 C 80.5 138.679688 78.804688 135.089844 76.984375 131.65625 C 74.894531 127.714844 72.601562 123.886719 70.3125 120.054688 C 69.5625 118.800781 68.738281 117.480469 67.429688 116.835938 C 65.625 115.949219 63.171875 116.804688 62.558594 118.816406 C 58.835938 117.613281 54.367188 119.550781 52.703125 123.089844 C 49.761719 123.132812 47.035156 125.53125 46.613281 128.441406 C 42.839844 130.59375 41.671875 135.5 41.703125 139.84375 C 41.789062 150.136719 46.808594 160.285156 54.230469 164.4375 C 60.449219 185.640625 66.667969 206.839844 74.59375 230.308594 Z M 74.59375 230.308594 " fill-opacity="1" fill-rule="nonzero"/></g><path fill="#6b2537" d="M 64.675781 157.160156 C 64.175781 157.160156 63.722656 156.816406 63.601562 156.308594 C 62.003906 149.640625 63.261719 142.339844 66.964844 136.570312 C 61.835938 131.984375 59.53125 124.394531 61.347656 117.742188 C 61.507812 117.152344 62.117188 116.804688 62.703125 116.964844 C 63.292969 117.125 63.640625 117.734375 63.480469 118.320312 C 61.800781 124.476562 64.121094 131.535156 69.125 135.496094 C 69.585938 135.859375 69.679688 136.519531 69.34375 137 C 65.566406 142.378906 64.222656 149.402344 65.753906 155.796875 C 65.898438 156.390625 65.53125 156.988281 64.933594 157.128906 C 64.847656 157.148438 64.761719 157.160156 64.675781 157.160156 Z M 64.675781 157.160156 " fill-opacity="1" fill-rule="nonzero"/><g clip-path="url(#b417516b77)"><path fill="#6b2537" d="M 50.855469 147.964844 C 49.503906 147.964844 48.15625 147.5625 47.03125 146.796875 C 45.445312 145.714844 44.296875 143.992188 43.414062 141.378906 C 43.214844 140.785156 43.035156 140.183594 42.863281 139.597656 C 42.480469 138.300781 42.117188 137.074219 41.539062 135.957031 C 41.257812 135.414062 41.46875 134.746094 42.007812 134.464844 C 42.550781 134.183594 43.21875 134.394531 43.5 134.933594 C 44.179688 136.242188 44.589844 137.628906 44.984375 138.96875 C 45.152344 139.53125 45.328125 140.113281 45.511719 140.667969 C 46.234375 142.804688 47.109375 144.167969 48.28125 144.964844 C 49.386719 145.71875 50.871094 145.949219 52.152344 145.5625 C 53.433594 145.175781 54.542969 144.167969 55.046875 142.925781 C 55.28125 142.359375 55.921875 142.089844 56.492188 142.320312 C 57.054688 142.550781 57.328125 143.195312 57.097656 143.761719 C 56.335938 145.632812 54.722656 147.097656 52.789062 147.683594 C 52.160156 147.871094 51.507812 147.964844 50.859375 147.964844 Z M 50.855469 147.964844 " fill-opacity="1" fill-rule="nonzero"/></g><path fill="#6b2537" d="M 55.984375 144.574219 C 55.800781 144.574219 55.613281 144.5625 55.417969 144.535156 C 53.410156 144.253906 52.097656 142.585938 51.179688 141.167969 C 48.605469 137.1875 46.75 132.828125 45.675781 128.207031 C 45.535156 127.613281 45.90625 127.019531 46.5 126.882812 C 47.097656 126.742188 47.691406 127.113281 47.828125 127.707031 C 48.847656 132.074219 50.601562 136.199219 53.035156 139.964844 C 53.699219 140.992188 54.605469 142.1875 55.722656 142.34375 C 57.011719 142.523438 58.285156 141.347656 59.46875 140.050781 C 59.882812 139.597656 60.582031 139.570312 61.03125 139.980469 C 61.484375 140.390625 61.515625 141.089844 61.105469 141.542969 C 60.183594 142.550781 58.339844 144.574219 55.984375 144.574219 Z M 55.984375 144.574219 " fill-opacity="1" fill-rule="nonzero"/><path fill="#6b2537" d="M 62.191406 141.300781 C 61.519531 141.300781 60.839844 141.183594 60.175781 140.886719 C 58.597656 140.195312 57.648438 138.761719 56.851562 137.3125 C 54.214844 132.511719 52.46875 127.328125 51.660156 121.910156 C 51.570312 121.304688 51.988281 120.742188 52.589844 120.652344 C 53.195312 120.5625 53.757812 120.976562 53.847656 121.582031 C 54.617188 126.742188 56.28125 131.675781 58.792969 136.246094 C 59.398438 137.351562 60.097656 138.433594 61.066406 138.863281 C 62.574219 139.527344 64.488281 138.605469 66.164062 137.691406 C 66.699219 137.398438 67.375 137.59375 67.664062 138.132812 C 67.960938 138.667969 67.761719 139.339844 67.226562 139.632812 C 66.070312 140.261719 64.175781 141.300781 62.191406 141.300781 Z M 62.191406 141.300781 " fill-opacity="1" fill-rule="nonzero"/><path fill="#6b2537" d="M 224.574219 60.628906 C 224.507812 63.117188 228.722656 63.058594 233.914062 63.207031 C 239.109375 63.351562 243.316406 63.640625 243.382812 61.152344 C 243.453125 58.660156 239.320312 55.792969 234.125 55.648438 C 228.929688 55.503906 224.644531 58.140625 224.574219 60.628906 Z M 224.574219 60.628906 " fill-opacity="1" fill-rule="nonzero"/><path fill="#6b2537" d="M 233.421875 68.75 C 233.703125 68.75 233.984375 68.789062 234.261719 68.859375 C 234.539062 68.929688 234.808594 69.03125 235.066406 69.164062 C 235.328125 69.300781 235.574219 69.464844 235.808594 69.660156 C 236.042969 69.855469 236.257812 70.078125 236.457031 70.324219 C 236.65625 70.570312 236.832031 70.839844 236.984375 71.132812 C 237.140625 71.421875 237.269531 71.726562 237.375 72.050781 C 237.480469 72.371094 237.5625 72.703125 237.613281 73.042969 C 237.667969 73.386719 237.691406 73.730469 237.6875 74.078125 C 237.683594 74.425781 237.65625 74.769531 237.597656 75.109375 C 237.539062 75.449219 237.453125 75.777344 237.34375 76.097656 C 237.230469 76.417969 237.097656 76.722656 236.9375 77.011719 C 236.777344 77.296875 236.597656 77.5625 236.394531 77.808594 C 236.191406 78.050781 235.972656 78.269531 235.734375 78.460938 C 235.496094 78.652344 235.246094 78.8125 234.984375 78.941406 C 234.722656 79.074219 234.453125 79.171875 234.175781 79.238281 C 233.894531 79.304688 233.613281 79.335938 233.332031 79.332031 C 233.050781 79.328125 232.769531 79.292969 232.492188 79.222656 C 232.214844 79.152344 231.945312 79.050781 231.683594 78.914062 C 231.425781 78.78125 231.179688 78.613281 230.945312 78.421875 C 230.710938 78.226562 230.496094 78.003906 230.296875 77.757812 C 230.097656 77.507812 229.921875 77.242188 229.765625 76.949219 C 229.613281 76.660156 229.480469 76.355469 229.375 76.03125 C 229.269531 75.710938 229.191406 75.378906 229.140625 75.039062 C 229.085938 74.695312 229.0625 74.351562 229.066406 74.003906 C 229.066406 73.65625 229.097656 73.3125 229.15625 72.972656 C 229.214844 72.632812 229.300781 72.300781 229.410156 71.980469 C 229.519531 71.664062 229.65625 71.359375 229.816406 71.070312 C 229.976562 70.785156 230.15625 70.515625 230.359375 70.273438 C 230.5625 70.03125 230.78125 69.8125 231.019531 69.621094 C 231.253906 69.429688 231.503906 69.269531 231.765625 69.136719 C 232.03125 69.007812 232.300781 68.910156 232.578125 68.84375 C 232.855469 68.777344 233.136719 68.746094 233.421875 68.75 Z M 233.421875 68.75 " fill-opacity="1" fill-rule="nonzero"/><path fill="#6b2537" d="M 208.703125 60.742188 C 208.851562 63.226562 204.636719 63.304688 199.449219 63.617188 C 194.261719 63.925781 190.066406 64.351562 189.917969 61.863281 C 189.769531 59.378906 193.808594 56.378906 198.996094 56.070312 C 204.183594 55.761719 208.554688 58.253906 208.703125 60.742188 Z M 208.703125 60.742188 " fill-opacity="1" fill-rule="nonzero"/><path fill="#6b2537" d="M 205.378906 73.972656 C 205.382812 74.320312 205.355469 74.664062 205.300781 75.003906 C 205.246094 75.347656 205.167969 75.675781 205.0625 76 C 204.953125 76.320312 204.824219 76.625 204.667969 76.914062 C 204.511719 77.207031 204.332031 77.472656 204.132812 77.71875 C 203.933594 77.96875 203.71875 78.1875 203.484375 78.382812 C 203.25 78.574219 203 78.738281 202.742188 78.875 C 202.480469 79.007812 202.210938 79.109375 201.933594 79.179688 C 201.65625 79.246094 201.375 79.28125 201.09375 79.285156 C 200.808594 79.285156 200.527344 79.253906 200.25 79.1875 C 199.972656 79.121094 199.703125 79.019531 199.441406 78.890625 C 199.179688 78.757812 198.929688 78.597656 198.691406 78.402344 C 198.457031 78.210938 198.238281 77.992188 198.035156 77.75 C 197.835938 77.503906 197.65625 77.238281 197.496094 76.949219 C 197.339844 76.660156 197.203125 76.355469 197.09375 76.035156 C 196.984375 75.714844 196.902344 75.386719 196.84375 75.046875 C 196.789062 74.703125 196.757812 74.359375 196.757812 74.011719 C 196.753906 73.664062 196.78125 73.320312 196.835938 72.980469 C 196.886719 72.640625 196.96875 72.308594 197.074219 71.988281 C 197.183594 71.664062 197.3125 71.359375 197.46875 71.070312 C 197.625 70.78125 197.800781 70.511719 198 70.265625 C 198.199219 70.019531 198.417969 69.796875 198.652344 69.605469 C 198.886719 69.410156 199.132812 69.246094 199.394531 69.113281 C 199.65625 68.976562 199.925781 68.875 200.203125 68.808594 C 200.480469 68.738281 200.761719 68.703125 201.042969 68.703125 C 201.324219 68.699219 201.605469 68.734375 201.882812 68.800781 C 202.164062 68.867188 202.433594 68.964844 202.695312 69.097656 C 202.957031 69.226562 203.207031 69.390625 203.441406 69.582031 C 203.679688 69.773438 203.898438 69.992188 204.097656 70.238281 C 204.300781 70.480469 204.480469 70.75 204.640625 71.035156 C 204.796875 71.324219 204.933594 71.628906 205.042969 71.949219 C 205.152344 72.269531 205.234375 72.601562 205.292969 72.941406 C 205.347656 73.28125 205.378906 73.625 205.378906 73.972656 Z M 205.378906 73.972656 " fill-opacity="1" fill-rule="nonzero"/><path fill="#6b2537" d="M 215.234375 125.65625 C 210.476562 125.65625 205.707031 124.757812 201.261719 122.941406 C 200.695312 122.707031 200.425781 122.0625 200.65625 121.496094 C 200.886719 120.929688 201.535156 120.660156 202.097656 120.890625 C 211.46875 124.71875 222.359375 124.21875 231.238281 119.5625 C 231.777344 119.277344 232.449219 119.484375 232.730469 120.027344 C 233.015625 120.566406 232.808594 121.234375 232.265625 121.519531 C 227.035156 124.265625 221.144531 125.65625 215.234375 125.65625 Z M 215.234375 125.65625 " fill-opacity="1" fill-rule="nonzero"/><g mask="url(#47db779917)"><g transform="matrix(1, 0, 0, 1, 231, 187)"><g clip-path="url(#6cd486a42a)"><g clip-path="url(#207c3246aa)"><g clip-path="url(#934a44dbbf)"><path fill="#a6a6a6" d="M 0.46875 0.5 L 51.832031 0.5 L 51.832031 21.304688 L 0.46875 21.304688 Z M 0.46875 0.5 " fill-opacity="1" fill-rule="nonzero"/></g></g></g></g></g><g fill="#fff2d2" fill-opacity="1"><g transform="translate(236.029426, 203.222282)"><g><path d="M 4.859375 0.109375 C 4.109375 0.109375 3.4375 -0.0195312 2.84375 -0.28125 C 2.25 -0.550781 1.785156 -0.921875 1.453125 -1.390625 C 1.117188 -1.867188 0.945312 -2.414062 0.9375 -3.03125 L 2.515625 -3.03125 C 2.566406 -2.5 2.785156 -2.050781 3.171875 -1.6875 C 3.554688 -1.320312 4.117188 -1.140625 4.859375 -1.140625 C 5.566406 -1.140625 6.125 -1.316406 6.53125 -1.671875 C 6.9375 -2.023438 7.140625 -2.476562 7.140625 -3.03125 C 7.140625 -3.46875 7.019531 -3.820312 6.78125 -4.09375 C 6.539062 -4.363281 6.238281 -4.566406 5.875 -4.703125 C 5.519531 -4.847656 5.039062 -5.003906 4.4375 -5.171875 C 3.6875 -5.367188 3.082031 -5.5625 2.625 -5.75 C 2.175781 -5.945312 1.789062 -6.253906 1.46875 -6.671875 C 1.15625 -7.097656 1 -7.664062 1 -8.375 C 1 -8.988281 1.15625 -9.535156 1.46875 -10.015625 C 1.78125 -10.492188 2.222656 -10.863281 2.796875 -11.125 C 3.367188 -11.382812 4.023438 -11.515625 4.765625 -11.515625 C 5.828125 -11.515625 6.695312 -11.25 7.375 -10.71875 C 8.0625 -10.1875 8.445312 -9.476562 8.53125 -8.59375 L 6.90625 -8.59375 C 6.84375 -9.03125 6.609375 -9.414062 6.203125 -9.75 C 5.804688 -10.082031 5.273438 -10.25 4.609375 -10.25 C 3.992188 -10.25 3.488281 -10.085938 3.09375 -9.765625 C 2.707031 -9.441406 2.515625 -8.992188 2.515625 -8.421875 C 2.515625 -8.003906 2.628906 -7.664062 2.859375 -7.40625 C 3.097656 -7.144531 3.382812 -6.945312 3.71875 -6.8125 C 4.0625 -6.675781 4.546875 -6.519531 5.171875 -6.34375 C 5.921875 -6.132812 6.523438 -5.929688 6.984375 -5.734375 C 7.441406 -5.535156 7.832031 -5.222656 8.15625 -4.796875 C 8.476562 -4.378906 8.640625 -3.8125 8.640625 -3.09375 C 8.640625 -2.539062 8.492188 -2.019531 8.203125 -1.53125 C 7.910156 -1.039062 7.472656 -0.644531 6.890625 -0.34375 C 6.316406 -0.0390625 5.640625 0.109375 4.859375 0.109375 Z M 4.859375 0.109375 "/></g></g></g><g fill="#fff2d2" fill-opacity="1"><g transform="translate(245.598602, 203.222282)"><g><path d="M 6.984375 -11.375 L 6.984375 -2.96875 C 6.984375 -2.03125 6.691406 -1.28125 6.109375 -0.71875 C 5.535156 -0.164062 4.773438 0.109375 3.828125 0.109375 C 2.867188 0.109375 2.101562 -0.171875 1.53125 -0.734375 C 0.957031 -1.304688 0.671875 -2.085938 0.671875 -3.078125 L 2.15625 -3.078125 C 2.164062 -2.523438 2.304688 -2.070312 2.578125 -1.71875 C 2.859375 -1.375 3.273438 -1.203125 3.828125 -1.203125 C 4.390625 -1.203125 4.804688 -1.367188 5.078125 -1.703125 C 5.347656 -2.035156 5.484375 -2.457031 5.484375 -2.96875 L 5.484375 -11.375 Z M 6.984375 -11.375 "/></g></g></g><g fill="#fff2d2" fill-opacity="1"><g transform="translate(254.238571, 203.222282)"><g><path d="M 0.703125 -5.6875 C 0.703125 -6.800781 0.953125 -7.800781 1.453125 -8.6875 C 1.953125 -9.570312 2.632812 -10.265625 3.5 -10.765625 C 4.363281 -11.265625 5.320312 -11.515625 6.375 -11.515625 C 7.613281 -11.515625 8.695312 -11.210938 9.625 -10.609375 C 10.550781 -10.015625 11.222656 -9.171875 11.640625 -8.078125 L 9.875 -8.078125 C 9.550781 -8.765625 9.09375 -9.289062 8.5 -9.65625 C 7.914062 -10.03125 7.207031 -10.21875 6.375 -10.21875 C 5.582031 -10.21875 4.867188 -10.03125 4.234375 -9.65625 C 3.609375 -9.289062 3.113281 -8.765625 2.75 -8.078125 C 2.394531 -7.398438 2.21875 -6.601562 2.21875 -5.6875 C 2.21875 -4.789062 2.394531 -4 2.75 -3.3125 C 3.113281 -2.632812 3.609375 -2.109375 4.234375 -1.734375 C 4.867188 -1.367188 5.582031 -1.1875 6.375 -1.1875 C 7.207031 -1.1875 7.914062 -1.367188 8.5 -1.734375 C 9.09375 -2.097656 9.550781 -2.625 9.875 -3.3125 L 11.640625 -3.3125 C 11.222656 -2.226562 10.550781 -1.390625 9.625 -0.796875 C 8.695312 -0.203125 7.613281 0.09375 6.375 0.09375 C 5.320312 0.09375 4.363281 -0.148438 3.5 -0.640625 C 2.632812 -1.140625 1.953125 -1.828125 1.453125 -2.703125 C 0.953125 -3.585938 0.703125 -4.582031 0.703125 -5.6875 Z M 0.703125 -5.6875 "/></g></g></g><g fill="#fff2d2" fill-opacity="1"><g transform="translate(266.823589, 203.222282)"><g><path d="M 6.40625 0.109375 C 5.351562 0.109375 4.390625 -0.132812 3.515625 -0.625 C 2.648438 -1.125 1.960938 -1.816406 1.453125 -2.703125 C 0.953125 -3.585938 0.703125 -4.582031 0.703125 -5.6875 C 0.703125 -6.800781 0.953125 -7.800781 1.453125 -8.6875 C 1.960938 -9.570312 2.648438 -10.257812 3.515625 -10.75 C 4.390625 -11.25 5.351562 -11.5 6.40625 -11.5 C 7.476562 -11.5 8.445312 -11.25 9.3125 -10.75 C 10.1875 -10.257812 10.875 -9.570312 11.375 -8.6875 C 11.875 -7.8125 12.125 -6.8125 12.125 -5.6875 C 12.125 -4.570312 11.875 -3.570312 11.375 -2.6875 C 10.875 -1.8125 10.1875 -1.125 9.3125 -0.625 C 8.445312 -0.132812 7.476562 0.109375 6.40625 0.109375 Z M 6.40625 -1.171875 C 7.207031 -1.171875 7.925781 -1.351562 8.5625 -1.71875 C 9.195312 -2.09375 9.695312 -2.625 10.0625 -3.3125 C 10.425781 -4 10.609375 -4.789062 10.609375 -5.6875 C 10.609375 -6.601562 10.425781 -7.398438 10.0625 -8.078125 C 9.695312 -8.765625 9.195312 -9.289062 8.5625 -9.65625 C 7.9375 -10.03125 7.21875 -10.21875 6.40625 -10.21875 C 5.601562 -10.21875 4.882812 -10.03125 4.25 -9.65625 C 3.625 -9.289062 3.128906 -8.765625 2.765625 -8.078125 C 2.398438 -7.398438 2.21875 -6.601562 2.21875 -5.6875 C 2.21875 -4.789062 2.398438 -4 2.765625 -3.3125 C 3.128906 -2.625 3.628906 -2.09375 4.265625 -1.71875 C 4.898438 -1.351562 5.613281 -1.171875 6.40625 -1.171875 Z M 6.40625 -1.171875 "/></g></g></g></svg>