<svg xmlns="http://www.w3.org/2000/svg" xmlns:xlink="http://www.w3.org/1999/xlink" width="500" zoomAndPan="magnify" viewBox="0 0 375 374.999991" height="500" preserveAspectRatio="xMidYMid meet" version="1.0"><defs><filter x="0%" y="0%" width="100%" height="100%" id="e9c13483a1"><feColorMatrix values="0 0 0 0 1 0 0 0 0 1 0 0 0 0 1 0 0 0 1 0" color-interpolation-filters="sRGB"/></filter><g/><clipPath id="6d385f38d1"><path d="M 161.269531 235.644531 L 375 235.644531 L 375 359.371094 L 161.269531 359.371094 Z M 161.269531 235.644531 " clip-rule="nonzero"/></clipPath><clipPath id="451183651a"><path d="M 178.519531 235.644531 L 357.75 235.644531 C 362.324219 235.644531 366.710938 237.460938 369.949219 240.695312 C 373.183594 243.929688 375 248.320312 375 252.894531 L 375 342.121094 C 375 346.695312 373.183594 351.082031 369.949219 354.316406 C 366.710938 357.554688 362.324219 359.371094 357.75 359.371094 L 178.519531 359.371094 C 173.945312 359.371094 169.558594 357.554688 166.324219 354.316406 C 163.089844 351.082031 161.269531 346.695312 161.269531 342.121094 L 161.269531 252.894531 C 161.269531 248.320312 163.089844 243.929688 166.324219 240.695312 C 169.558594 237.460938 173.945312 235.644531 178.519531 235.644531 Z M 178.519531 235.644531 " clip-rule="nonzero"/></clipPath><clipPath id="13b72fabaf"><path d="M 12.425781 51.546875 L 259.175781 51.546875 L 259.175781 214 L 12.425781 214 Z M 12.425781 51.546875 " clip-rule="nonzero"/></clipPath><clipPath id="379a406ab7"><path d="M 51 213 L 220 213 L 220 218.046875 L 51 218.046875 Z M 51 213 " clip-rule="nonzero"/></clipPath><clipPath id="efcc868fa7"><path d="M 12.425781 51.546875 L 30 51.546875 L 30 67 L 12.425781 67 Z M 12.425781 51.546875 " clip-rule="nonzero"/></clipPath><clipPath id="123300300e"><path d="M 242 51.546875 L 259.175781 51.546875 L 259.175781 67 L 242 67 Z M 242 51.546875 " clip-rule="nonzero"/></clipPath><clipPath id="146a3dbb7c"><path d="M 12.425781 198 L 30 198 L 30 214 L 12.425781 214 Z M 12.425781 198 " clip-rule="nonzero"/></clipPath><clipPath id="1691a10627"><path d="M 242 198 L 259.175781 198 L 259.175781 214 L 242 214 Z M 242 198 " clip-rule="nonzero"/></clipPath><clipPath id="134af58880"><path d="M 290.394531 194.5625 L 333.277344 194.5625 L 333.277344 198.640625 L 290.394531 198.640625 Z M 290.394531 194.5625 " clip-rule="nonzero"/></clipPath><clipPath id="a8399fceb7"><path d="M 292.433594 194.5625 L 331.226562 194.5625 C 332.351562 194.5625 333.265625 195.476562 333.265625 196.601562 C 333.265625 197.726562 332.351562 198.640625 331.226562 198.640625 L 292.433594 198.640625 C 291.304688 198.640625 290.394531 197.726562 290.394531 196.601562 C 290.394531 195.476562 291.304688 194.5625 292.433594 194.5625 Z M 292.433594 194.5625 " clip-rule="nonzero"/></clipPath><clipPath id="ee97d28362"><path d="M 191 194 L 374.992188 194 L 374.992188 359.515625 L 191 359.515625 Z M 191 194 " clip-rule="nonzero"/></clipPath><clipPath id="e7231ef868"><path d="M 245 106.449219 L 319 106.449219 L 319 168 L 245 168 Z M 245 106.449219 " clip-rule="nonzero"/></clipPath><clipPath id="5746d9a0c5"><path d="M 281 225 L 284 225 L 284 359.515625 L 281 359.515625 Z M 281 225 " clip-rule="nonzero"/></clipPath><clipPath id="0d44008463"><path d="M 159.070312 144 L 182 144 L 182 204 L 159.070312 204 Z M 159.070312 144 " clip-rule="nonzero"/></clipPath><mask id="53f45d3c97"><g filter="url(#e9c13483a1)"><rect x="-37.5" width="450" fill="#000000" y="-37.499999" height="449.999989" fill-opacity="0.7"/></g></mask><clipPath id="b4d7a4b5df"><path d="M 0.570312 0.550781 L 37.40625 0.550781 L 37.40625 15.46875 L 0.570312 15.46875 Z M 0.570312 0.550781 " clip-rule="nonzero"/></clipPath><clipPath id="b705dbe923"><path d="M 8.03125 0.550781 L 29.925781 0.550781 C 34.046875 0.550781 37.386719 3.890625 37.386719 8.007812 C 37.386719 12.128906 34.046875 15.46875 29.925781 15.46875 L 8.03125 15.46875 C 3.910156 15.46875 0.570312 12.128906 0.570312 8.007812 C 0.570312 3.890625 3.910156 0.550781 8.03125 0.550781 Z M 8.03125 0.550781 " clip-rule="nonzero"/></clipPath><clipPath id="8ed63e53b4"><rect x="0" width="38" y="0" height="16"/></clipPath><clipPath id="f57a22cc43"><path d="M 329.285156 203.117188 L 333.265625 203.117188 L 333.265625 207.09375 L 329.285156 207.09375 Z M 329.285156 203.117188 " clip-rule="nonzero"/></clipPath><clipPath id="b370206402"><path d="M 331.273438 203.117188 C 330.175781 203.117188 329.285156 204.007812 329.285156 205.105469 C 329.285156 206.203125 330.175781 207.09375 331.273438 207.09375 C 332.375 207.09375 333.265625 206.203125 333.265625 205.105469 C 333.265625 204.007812 332.375 203.117188 331.273438 203.117188 Z M 331.273438 203.117188 " clip-rule="nonzero"/></clipPath><clipPath id="b07e5faac3"><path d="M 337.5 207.09375 L 358.492188 207.09375 L 358.492188 210.84375 L 337.5 210.84375 Z M 337.5 207.09375 " clip-rule="nonzero"/></clipPath><clipPath id="6594504a88"><path d="M 339.375 207.09375 L 356.613281 207.09375 C 357.648438 207.09375 358.488281 207.933594 358.488281 208.96875 C 358.488281 210.007812 357.648438 210.84375 356.613281 210.84375 L 339.375 210.84375 C 338.339844 210.84375 337.5 210.007812 337.5 208.96875 C 337.5 207.933594 338.339844 207.09375 339.375 207.09375 Z M 339.375 207.09375 " clip-rule="nonzero"/></clipPath><clipPath id="8cd4d4b534"><path d="M 320.808594 183.519531 L 327.707031 183.519531 L 327.707031 190.421875 L 320.808594 190.421875 Z M 320.808594 183.519531 " clip-rule="nonzero"/></clipPath><clipPath id="26388f2698"><path d="M 324.257812 183.519531 C 322.351562 183.519531 320.808594 185.066406 320.808594 186.972656 C 320.808594 188.875 322.351562 190.421875 324.257812 190.421875 C 326.164062 190.421875 327.707031 188.875 327.707031 186.972656 C 327.707031 185.066406 326.164062 183.519531 324.257812 183.519531 Z M 324.257812 183.519531 " clip-rule="nonzero"/></clipPath><clipPath id="691c617357"><path d="M 344.015625 194.5625 L 347.992188 194.5625 L 347.992188 198.542969 L 344.015625 198.542969 Z M 344.015625 194.5625 " clip-rule="nonzero"/></clipPath><clipPath id="09f343bd24"><path d="M 346.003906 194.5625 C 344.90625 194.5625 344.015625 195.453125 344.015625 196.550781 C 344.015625 197.652344 344.90625 198.542969 346.003906 198.542969 C 347.101562 198.542969 347.992188 197.652344 347.992188 196.550781 C 347.992188 195.453125 347.101562 194.5625 346.003906 194.5625 Z M 346.003906 194.5625 " clip-rule="nonzero"/></clipPath><clipPath id="dc6292641d"><path d="M 341.285156 215.117188 L 345.265625 215.117188 L 345.265625 219.09375 L 341.285156 219.09375 Z M 341.285156 215.117188 " clip-rule="nonzero"/></clipPath><clipPath id="e45733f2a2"><path d="M 343.273438 215.117188 C 342.175781 215.117188 341.285156 216.007812 341.285156 217.105469 C 341.285156 218.203125 342.175781 219.09375 343.273438 219.09375 C 344.375 219.09375 345.265625 218.203125 345.265625 217.105469 C 345.265625 216.007812 344.375 215.117188 343.273438 215.117188 Z M 343.273438 215.117188 " clip-rule="nonzero"/></clipPath><clipPath id="ca7da8dd36"><path d="M 139.433594 246.992188 L 145.261719 246.992188 L 145.261719 252.890625 L 139.433594 252.890625 Z M 139.433594 246.992188 " clip-rule="nonzero"/></clipPath><clipPath id="14b153f68d"><path d="M 142.347656 246.992188 C 143.957031 246.992188 145.261719 248.296875 145.261719 249.90625 L 145.261719 249.964844 C 145.261719 251.578125 143.957031 252.882812 142.347656 252.882812 C 140.738281 252.882812 139.433594 251.578125 139.433594 249.964844 L 139.433594 249.90625 C 139.433594 248.296875 140.738281 246.992188 142.347656 246.992188 Z M 142.347656 246.992188 " clip-rule="nonzero"/></clipPath><clipPath id="4965bb627f"><path d="M 153.023438 233.660156 L 156.773438 233.660156 L 156.773438 237.410156 L 153.023438 237.410156 Z M 153.023438 233.660156 " clip-rule="nonzero"/></clipPath><clipPath id="ef8fb7d2b1"><path d="M 154.898438 233.660156 C 155.933594 233.660156 156.773438 234.5 156.773438 235.535156 C 156.773438 236.570312 155.933594 237.410156 154.898438 237.410156 C 153.859375 237.410156 153.023438 236.570312 153.023438 235.535156 C 153.023438 234.5 153.859375 233.660156 154.898438 233.660156 Z M 154.898438 233.660156 " clip-rule="nonzero"/></clipPath><clipPath id="1c83e2942d"><path d="M 117.597656 224.015625 L 161.277344 224.015625 L 161.277344 227.765625 L 117.597656 227.765625 Z M 117.597656 224.015625 " clip-rule="nonzero"/></clipPath><clipPath id="ee0ba818ff"><path d="M 119.472656 224.015625 L 159.394531 224.015625 C 160.429688 224.015625 161.269531 224.855469 161.269531 225.890625 C 161.269531 226.925781 160.429688 227.765625 159.394531 227.765625 L 119.472656 227.765625 C 118.4375 227.765625 117.597656 226.925781 117.597656 225.890625 C 117.597656 224.855469 118.4375 224.015625 119.472656 224.015625 Z M 119.472656 224.015625 " clip-rule="nonzero"/></clipPath><clipPath id="b4a4d26587"><path d="M 358.488281 215.117188 L 362.46875 215.117188 L 362.46875 219.09375 L 358.488281 219.09375 Z M 358.488281 215.117188 " clip-rule="nonzero"/></clipPath><clipPath id="2124887007"><path d="M 360.476562 215.117188 C 359.378906 215.117188 358.488281 216.007812 358.488281 217.105469 C 358.488281 218.203125 359.378906 219.09375 360.476562 219.09375 C 361.574219 219.09375 362.46875 218.203125 362.46875 217.105469 C 362.46875 216.007812 361.574219 215.117188 360.476562 215.117188 Z M 360.476562 215.117188 " clip-rule="nonzero"/></clipPath><clipPath id="0b18b2d471"><path d="M 112.179688 235.644531 L 132.101562 235.644531 L 132.101562 239.394531 L 112.179688 239.394531 Z M 112.179688 235.644531 " clip-rule="nonzero"/></clipPath><clipPath id="52497064b2"><path d="M 114.054688 235.644531 L 130.21875 235.644531 C 131.253906 235.644531 132.09375 236.484375 132.09375 237.519531 C 132.09375 238.554688 131.253906 239.394531 130.21875 239.394531 L 114.054688 239.394531 C 113.019531 239.394531 112.179688 238.554688 112.179688 237.519531 C 112.179688 236.484375 113.019531 235.644531 114.054688 235.644531 Z M 114.054688 235.644531 " clip-rule="nonzero"/></clipPath></defs><g clip-path="url(#6d385f38d1)"><g clip-path="url(#451183651a)"><path fill="#fff2d2" d="M 161.269531 235.644531 L 374.894531 235.644531 L 374.894531 359.371094 L 161.269531 359.371094 Z M 161.269531 235.644531 " fill-opacity="1" fill-rule="nonzero"/></g></g><path fill="#f2f2f2" d="M 16.507812 58.578125 L 255.101562 58.578125 L 255.101562 206.6875 L 16.507812 206.6875 Z M 16.507812 58.578125 " fill-opacity="1" fill-rule="nonzero"/><path fill="#d8d8d8" d="M 24.289062 58.128906 L 20.015625 58.128906 L 20.015625 209.496094 C 20.296875 209.546875 20.574219 209.597656 20.851562 209.652344 C 21.929688 209.300781 23.101562 209.140625 24.289062 209.046875 L 24.289062 64.519531 C 24.289062 63.035156 25.644531 61.832031 27.3125 61.832031 L 254.652344 61.832031 L 254.652344 58.128906 Z M 24.289062 58.128906 " fill-opacity="1" fill-rule="nonzero"/><g clip-path="url(#13b72fabaf)"><path fill="#999999" d="M 255.101562 51.546875 L 16.507812 51.546875 C 14.320312 51.546875 12.546875 53.121094 12.546875 55.0625 L 12.546875 210.203125 C 12.546875 212.148438 14.320312 213.722656 16.507812 213.722656 L 255.101562 213.722656 C 257.289062 213.722656 259.058594 212.148438 259.058594 210.203125 L 259.058594 55.0625 C 259.058594 53.121094 257.289062 51.546875 255.101562 51.546875 Z M 20.464844 203.171875 L 20.464844 62.097656 C 20.464844 60.15625 22.238281 58.582031 24.425781 58.582031 L 247.183594 58.582031 C 249.367188 58.582031 251.140625 60.15625 251.140625 62.097656 L 251.140625 203.171875 C 251.140625 205.113281 249.367188 206.6875 247.183594 206.6875 L 24.425781 206.6875 C 22.238281 206.6875 20.464844 205.113281 20.464844 203.171875 Z M 20.464844 203.171875 " fill-opacity="1" fill-rule="nonzero"/><path fill="#bcbcbc" d="M 255.101562 51.546875 L 16.507812 51.546875 C 14.320312 51.546875 12.546875 53.121094 12.546875 55.0625 L 12.546875 210.203125 C 12.546875 212.148438 14.320312 213.722656 16.507812 213.722656 L 255.101562 213.722656 C 257.289062 213.722656 259.058594 212.148438 259.058594 210.203125 L 259.058594 55.0625 C 259.058594 53.121094 257.289062 51.546875 255.101562 51.546875 Z M 20.464844 203.171875 L 20.464844 62.097656 C 20.464844 60.15625 22.238281 58.582031 24.425781 58.582031 L 247.183594 58.582031 C 249.367188 58.582031 251.140625 60.15625 251.140625 62.097656 L 251.140625 203.171875 C 251.140625 205.113281 249.367188 206.6875 247.183594 206.6875 L 24.425781 206.6875 C 22.238281 206.6875 20.464844 205.113281 20.464844 203.171875 Z M 20.464844 203.171875 " fill-opacity="1" fill-rule="nonzero"/></g><g clip-path="url(#379a406ab7)"><path fill="#d8d8d8" d="M 216.527344 218.039062 L 55.390625 218.039062 C 53.5 218.039062 51.96875 216.507812 51.96875 214.617188 L 51.96875 213.742188 L 219.640625 213.742188 L 219.640625 214.929688 C 219.640625 216.648438 218.246094 218.039062 216.527344 218.039062 Z M 216.527344 218.039062 " fill-opacity="1" fill-rule="nonzero"/></g><path fill="#d8d8d8" d="M 29.519531 53.214844 L 244.785156 53.214844 L 244.785156 54.34375 L 29.519531 54.34375 Z M 29.519531 53.214844 " fill-opacity="1" fill-rule="nonzero"/><path fill="#878787" d="M 28.171875 208.527344 L 243.433594 208.527344 L 243.433594 209.65625 L 28.171875 209.65625 Z M 28.171875 208.527344 " fill-opacity="1" fill-rule="nonzero"/><path fill="#d8d8d8" d="M 28.171875 210.921875 L 243.433594 210.921875 L 243.433594 212.050781 L 28.171875 212.050781 Z M 28.171875 210.921875 " fill-opacity="1" fill-rule="nonzero"/><path fill="#d8d8d8" d="M 28.171875 208.527344 L 243.433594 208.527344 L 243.433594 209.65625 L 28.171875 209.65625 Z M 28.171875 208.527344 " fill-opacity="1" fill-rule="nonzero"/><path fill="#d8d8d8" d="M 17.226562 65.195312 L 18.496094 65.195312 L 18.496094 202.398438 L 17.226562 202.398438 Z M 17.226562 65.195312 " fill-opacity="1" fill-rule="nonzero"/><path fill="#d8d8d8" d="M 14.53125 65.195312 L 15.800781 65.195312 L 15.800781 202.398438 L 14.53125 202.398438 Z M 14.53125 65.195312 " fill-opacity="1" fill-rule="nonzero"/><path fill="#d8d8d8" d="M 255.808594 65.195312 L 257.078125 65.195312 L 257.078125 202.398438 L 255.808594 202.398438 Z M 255.808594 65.195312 " fill-opacity="1" fill-rule="nonzero"/><path fill="#d8d8d8" d="M 253.113281 65.195312 L 254.378906 65.195312 L 254.378906 202.398438 L 253.113281 202.398438 Z M 253.113281 65.195312 " fill-opacity="1" fill-rule="nonzero"/><path fill="#d8d8d8" d="M 29.519531 55.613281 L 244.785156 55.613281 L 244.785156 56.738281 L 29.519531 56.738281 Z M 29.519531 55.613281 " fill-opacity="1" fill-rule="nonzero"/><g clip-path="url(#efcc868fa7)"><path fill="#5b5959" d="M 20.464844 66.394531 L 20.464844 62.097656 C 20.464844 60.15625 22.238281 58.582031 24.425781 58.582031 L 29.519531 58.582031 L 29.519531 51.546875 L 16.507812 51.546875 C 14.320312 51.546875 12.546875 53.121094 12.546875 55.0625 L 12.546875 66.394531 Z M 20.464844 66.394531 " fill-opacity="1" fill-rule="nonzero"/></g><g clip-path="url(#123300300e)"><path fill="#5b5959" d="M 251.140625 66.394531 L 251.140625 62.097656 C 251.140625 60.15625 249.367188 58.582031 247.183594 58.582031 L 242.085938 58.582031 L 242.085938 51.546875 L 251.140625 51.546875 C 251.140625 51.546875 255.101562 51.546875 255.101562 51.546875 C 257.289062 51.546875 259.058594 53.121094 259.058594 55.0625 L 259.058594 66.394531 Z M 251.140625 66.394531 " fill-opacity="1" fill-rule="nonzero"/></g><g clip-path="url(#146a3dbb7c)"><path fill="#5b5959" d="M 20.464844 198.894531 L 20.464844 203.191406 C 20.464844 205.132812 22.238281 206.707031 24.425781 206.707031 L 29.519531 206.707031 L 29.519531 213.742188 L 16.507812 213.742188 C 14.320312 213.742188 12.546875 212.167969 12.546875 210.226562 L 12.546875 198.894531 Z M 20.464844 198.894531 " fill-opacity="1" fill-rule="nonzero"/></g><g clip-path="url(#1691a10627)"><path fill="#5b5959" d="M 251.140625 198.894531 L 251.140625 203.191406 C 251.140625 205.132812 249.367188 206.707031 247.183594 206.707031 L 242.085938 206.707031 L 242.085938 213.742188 L 251.140625 213.742188 C 251.140625 213.742188 255.101562 213.742188 255.101562 213.742188 C 257.289062 213.742188 259.058594 212.167969 259.058594 210.226562 L 259.058594 198.894531 Z M 251.140625 198.894531 " fill-opacity="1" fill-rule="nonzero"/></g><g fill="#545454" fill-opacity="1"><g transform="translate(33.133204, 131.819509)"><g><path d="M 19.0625 -13.9375 L 15.015625 0 L 12.984375 0 L 9.734375 -11.21875 L 6.375 0 L 4.359375 0.015625 L 0.453125 -13.9375 L 2.40625 -13.9375 L 5.4375 -2.125 L 8.796875 -13.9375 L 10.84375 -13.9375 L 14.046875 -2.15625 L 17.09375 -13.9375 Z M 19.0625 -13.9375 "/></g></g></g><g fill="#545454" fill-opacity="1"><g transform="translate(52.645505, 131.819509)"><g><path d="M 3.359375 -12.453125 L 3.359375 -7.796875 L 8.4375 -7.796875 L 8.4375 -6.296875 L 3.359375 -6.296875 L 3.359375 -1.5 L 9.046875 -1.5 L 9.046875 0 L 1.546875 0 L 1.546875 -13.953125 L 9.046875 -13.953125 L 9.046875 -12.453125 Z M 3.359375 -12.453125 "/></g></g></g><g fill="#545454" fill-opacity="1"><g transform="translate(62.901459, 131.819509)"><g><path d="M 3.359375 -1.484375 L 8.234375 -1.484375 L 8.234375 0 L 1.546875 0 L 1.546875 -13.9375 L 3.359375 -13.9375 Z M 3.359375 -1.484375 "/></g></g></g><g fill="#545454" fill-opacity="1"><g transform="translate(71.538052, 131.819509)"><g><path d="M 0.859375 -6.984375 C 0.859375 -8.335938 1.164062 -9.554688 1.78125 -10.640625 C 2.394531 -11.734375 3.226562 -12.585938 4.28125 -13.203125 C 5.34375 -13.816406 6.519531 -14.125 7.8125 -14.125 C 9.332031 -14.125 10.660156 -13.753906 11.796875 -13.015625 C 12.929688 -12.285156 13.757812 -11.25 14.28125 -9.90625 L 12.09375 -9.90625 C 11.707031 -10.738281 11.148438 -11.378906 10.421875 -11.828125 C 9.703125 -12.285156 8.832031 -12.515625 7.8125 -12.515625 C 6.84375 -12.515625 5.972656 -12.285156 5.203125 -11.828125 C 4.429688 -11.378906 3.820312 -10.738281 3.375 -9.90625 C 2.9375 -9.070312 2.71875 -8.097656 2.71875 -6.984375 C 2.71875 -5.867188 2.9375 -4.894531 3.375 -4.0625 C 3.820312 -3.226562 4.429688 -2.582031 5.203125 -2.125 C 5.972656 -1.675781 6.84375 -1.453125 7.8125 -1.453125 C 8.832031 -1.453125 9.703125 -1.675781 10.421875 -2.125 C 11.148438 -2.570312 11.707031 -3.21875 12.09375 -4.0625 L 14.28125 -4.0625 C 13.757812 -2.726562 12.929688 -1.695312 11.796875 -0.96875 C 10.660156 -0.238281 9.332031 0.125 7.8125 0.125 C 6.519531 0.125 5.34375 -0.175781 4.28125 -0.78125 C 3.226562 -1.394531 2.394531 -2.238281 1.78125 -3.3125 C 1.164062 -4.394531 0.859375 -5.617188 0.859375 -6.984375 Z M 0.859375 -6.984375 "/></g></g></g><g fill="#545454" fill-opacity="1"><g transform="translate(86.971965, 131.819509)"><g><path d="M 7.859375 0.140625 C 6.566406 0.140625 5.382812 -0.160156 4.3125 -0.765625 C 3.25 -1.378906 2.40625 -2.226562 1.78125 -3.3125 C 1.164062 -4.394531 0.859375 -5.617188 0.859375 -6.984375 C 0.859375 -8.335938 1.164062 -9.554688 1.78125 -10.640625 C 2.40625 -11.734375 3.25 -12.582031 4.3125 -13.1875 C 5.382812 -13.789062 6.566406 -14.09375 7.859375 -14.09375 C 9.160156 -14.09375 10.34375 -13.789062 11.40625 -13.1875 C 12.476562 -12.582031 13.320312 -11.738281 13.9375 -10.65625 C 14.550781 -9.582031 14.859375 -8.359375 14.859375 -6.984375 C 14.859375 -5.609375 14.550781 -4.378906 13.9375 -3.296875 C 13.320312 -2.222656 12.476562 -1.378906 11.40625 -0.765625 C 10.34375 -0.160156 9.160156 0.140625 7.859375 0.140625 Z M 7.859375 -1.4375 C 8.828125 -1.4375 9.703125 -1.660156 10.484375 -2.109375 C 11.265625 -2.566406 11.878906 -3.210938 12.328125 -4.046875 C 12.773438 -4.890625 13 -5.867188 13 -6.984375 C 13 -8.097656 12.773438 -9.070312 12.328125 -9.90625 C 11.878906 -10.738281 11.269531 -11.378906 10.5 -11.828125 C 9.726562 -12.285156 8.847656 -12.515625 7.859375 -12.515625 C 6.867188 -12.515625 5.988281 -12.285156 5.21875 -11.828125 C 4.445312 -11.378906 3.835938 -10.738281 3.390625 -9.90625 C 2.941406 -9.070312 2.71875 -8.097656 2.71875 -6.984375 C 2.71875 -5.867188 2.941406 -4.890625 3.390625 -4.046875 C 3.835938 -3.210938 4.453125 -2.566406 5.234375 -2.109375 C 6.015625 -1.660156 6.890625 -1.4375 7.859375 -1.4375 Z M 7.859375 -1.4375 "/></g></g></g><g fill="#545454" fill-opacity="1"><g transform="translate(102.685766, 131.819509)"><g><path d="M 15.6875 -13.84375 L 15.6875 0 L 13.859375 0 L 13.859375 -10.3125 L 9.265625 0 L 7.984375 0 L 3.359375 -10.34375 L 3.359375 0 L 1.546875 0 L 1.546875 -13.84375 L 3.5 -13.84375 L 8.625 -2.40625 L 13.734375 -13.84375 Z M 15.6875 -13.84375 "/></g></g></g><g fill="#545454" fill-opacity="1"><g transform="translate(119.898972, 131.819509)"><g><path d="M 3.359375 -12.453125 L 3.359375 -7.796875 L 8.4375 -7.796875 L 8.4375 -6.296875 L 3.359375 -6.296875 L 3.359375 -1.5 L 9.046875 -1.5 L 9.046875 0 L 1.546875 0 L 1.546875 -13.953125 L 9.046875 -13.953125 L 9.046875 -12.453125 Z M 3.359375 -12.453125 "/></g></g></g><g fill="#545454" fill-opacity="1"><g transform="translate(130.154926, 131.819509)"><g/></g></g><g fill="#545454" fill-opacity="1"><g transform="translate(135.492816, 131.819509)"><g><path d="M 5.953125 0.140625 C 5.035156 0.140625 4.210938 -0.0195312 3.484375 -0.34375 C 2.765625 -0.675781 2.195312 -1.128906 1.78125 -1.703125 C 1.363281 -2.285156 1.148438 -2.957031 1.140625 -3.71875 L 3.078125 -3.71875 C 3.148438 -3.0625 3.421875 -2.507812 3.890625 -2.0625 C 4.359375 -1.625 5.046875 -1.40625 5.953125 -1.40625 C 6.828125 -1.40625 7.515625 -1.617188 8.015625 -2.046875 C 8.515625 -2.484375 8.765625 -3.039062 8.765625 -3.71875 C 8.765625 -4.25 8.613281 -4.679688 8.3125 -5.015625 C 8.019531 -5.347656 7.65625 -5.601562 7.21875 -5.78125 C 6.78125 -5.957031 6.1875 -6.144531 5.4375 -6.34375 C 4.519531 -6.582031 3.785156 -6.820312 3.234375 -7.0625 C 2.679688 -7.300781 2.207031 -7.675781 1.8125 -8.1875 C 1.414062 -8.695312 1.21875 -9.390625 1.21875 -10.265625 C 1.21875 -11.023438 1.410156 -11.695312 1.796875 -12.28125 C 2.179688 -12.863281 2.722656 -13.316406 3.421875 -13.640625 C 4.128906 -13.960938 4.9375 -14.125 5.84375 -14.125 C 7.144531 -14.125 8.210938 -13.796875 9.046875 -13.140625 C 9.878906 -12.484375 10.347656 -11.617188 10.453125 -10.546875 L 8.453125 -10.546875 C 8.390625 -11.078125 8.109375 -11.546875 7.609375 -11.953125 C 7.117188 -12.359375 6.46875 -12.5625 5.65625 -12.5625 C 4.894531 -12.5625 4.273438 -12.363281 3.796875 -11.96875 C 3.316406 -11.570312 3.078125 -11.019531 3.078125 -10.3125 C 3.078125 -9.8125 3.21875 -9.398438 3.5 -9.078125 C 3.789062 -8.753906 4.144531 -8.507812 4.5625 -8.34375 C 4.988281 -8.175781 5.582031 -7.988281 6.34375 -7.78125 C 7.257812 -7.53125 8 -7.28125 8.5625 -7.03125 C 9.125 -6.78125 9.601562 -6.398438 10 -5.890625 C 10.394531 -5.378906 10.59375 -4.679688 10.59375 -3.796875 C 10.59375 -3.117188 10.410156 -2.476562 10.046875 -1.875 C 9.691406 -1.28125 9.160156 -0.796875 8.453125 -0.421875 C 7.753906 -0.046875 6.921875 0.140625 5.953125 0.140625 Z M 5.953125 0.140625 "/></g></g></g><g fill="#545454" fill-opacity="1"><g transform="translate(147.228182, 131.819509)"><g><path d="M 10.125 -13.9375 L 10.125 -12.453125 L 6.3125 -12.453125 L 6.3125 0 L 4.5 0 L 4.5 -12.453125 L 0.6875 -12.453125 L 0.6875 -13.9375 Z M 10.125 -13.9375 "/></g></g></g><g fill="#545454" fill-opacity="1"><g transform="translate(158.043912, 131.819509)"><g><path d="M 3.3125 -13.9375 L 3.3125 -5.125 C 3.3125 -3.882812 3.613281 -2.960938 4.21875 -2.359375 C 4.832031 -1.753906 5.679688 -1.453125 6.765625 -1.453125 C 7.828125 -1.453125 8.660156 -1.753906 9.265625 -2.359375 C 9.878906 -2.960938 10.1875 -3.882812 10.1875 -5.125 L 10.1875 -13.9375 L 12 -13.9375 L 12 -5.140625 C 12 -3.984375 11.765625 -3.003906 11.296875 -2.203125 C 10.828125 -1.410156 10.195312 -0.820312 9.40625 -0.4375 C 8.613281 -0.0507812 7.722656 0.140625 6.734375 0.140625 C 5.753906 0.140625 4.863281 -0.0507812 4.0625 -0.4375 C 3.269531 -0.820312 2.644531 -1.410156 2.1875 -2.203125 C 1.726562 -3.003906 1.5 -3.984375 1.5 -5.140625 L 1.5 -13.9375 Z M 3.3125 -13.9375 "/></g></g></g><g fill="#545454" fill-opacity="1"><g transform="translate(171.53859, 131.819509)"><g><path d="M 5.875 -13.9375 C 7.394531 -13.9375 8.710938 -13.648438 9.828125 -13.078125 C 10.941406 -12.515625 11.796875 -11.707031 12.390625 -10.65625 C 12.984375 -9.601562 13.28125 -8.363281 13.28125 -6.9375 C 13.28125 -5.507812 12.984375 -4.269531 12.390625 -3.21875 C 11.796875 -2.175781 10.941406 -1.378906 9.828125 -0.828125 C 8.710938 -0.273438 7.394531 0 5.875 0 L 1.546875 0 L 1.546875 -13.9375 Z M 5.875 -1.5 C 7.675781 -1.5 9.050781 -1.972656 10 -2.921875 C 10.945312 -3.878906 11.421875 -5.21875 11.421875 -6.9375 C 11.421875 -8.675781 10.941406 -10.03125 9.984375 -11 C 9.035156 -11.96875 7.664062 -12.453125 5.875 -12.453125 L 3.359375 -12.453125 L 3.359375 -1.5 Z M 5.875 -1.5 "/></g></g></g><g fill="#545454" fill-opacity="1"><g transform="translate(185.673015, 131.819509)"><g><path d="M 3.359375 -12.453125 L 3.359375 -7.796875 L 8.4375 -7.796875 L 8.4375 -6.296875 L 3.359375 -6.296875 L 3.359375 -1.5 L 9.046875 -1.5 L 9.046875 0 L 1.546875 0 L 1.546875 -13.953125 L 9.046875 -13.953125 L 9.046875 -12.453125 Z M 3.359375 -12.453125 "/></g></g></g><g fill="#545454" fill-opacity="1"><g transform="translate(195.928969, 131.819509)"><g><path d="M 12.5 0 L 10.6875 0 L 3.359375 -11.09375 L 3.359375 0 L 1.546875 0 L 1.546875 -13.953125 L 3.359375 -13.953125 L 10.6875 -2.875 L 10.6875 -13.953125 L 12.5 -13.953125 Z M 12.5 0 "/></g></g></g><g fill="#545454" fill-opacity="1"><g transform="translate(209.983423, 131.819509)"><g><path d="M 10.125 -13.9375 L 10.125 -12.453125 L 6.3125 -12.453125 L 6.3125 0 L 4.5 0 L 4.5 -12.453125 L 0.6875 -12.453125 L 0.6875 -13.9375 Z M 10.125 -13.9375 "/></g></g></g><g fill="#545454" fill-opacity="1"><g transform="translate(220.799153, 131.819509)"><g><path d="M 5.953125 0.140625 C 5.035156 0.140625 4.210938 -0.0195312 3.484375 -0.34375 C 2.765625 -0.675781 2.195312 -1.128906 1.78125 -1.703125 C 1.363281 -2.285156 1.148438 -2.957031 1.140625 -3.71875 L 3.078125 -3.71875 C 3.148438 -3.0625 3.421875 -2.507812 3.890625 -2.0625 C 4.359375 -1.625 5.046875 -1.40625 5.953125 -1.40625 C 6.828125 -1.40625 7.515625 -1.617188 8.015625 -2.046875 C 8.515625 -2.484375 8.765625 -3.039062 8.765625 -3.71875 C 8.765625 -4.25 8.613281 -4.679688 8.3125 -5.015625 C 8.019531 -5.347656 7.65625 -5.601562 7.21875 -5.78125 C 6.78125 -5.957031 6.1875 -6.144531 5.4375 -6.34375 C 4.519531 -6.582031 3.785156 -6.820312 3.234375 -7.0625 C 2.679688 -7.300781 2.207031 -7.675781 1.8125 -8.1875 C 1.414062 -8.695312 1.21875 -9.390625 1.21875 -10.265625 C 1.21875 -11.023438 1.410156 -11.695312 1.796875 -12.28125 C 2.179688 -12.863281 2.722656 -13.316406 3.421875 -13.640625 C 4.128906 -13.960938 4.9375 -14.125 5.84375 -14.125 C 7.144531 -14.125 8.210938 -13.796875 9.046875 -13.140625 C 9.878906 -12.484375 10.347656 -11.617188 10.453125 -10.546875 L 8.453125 -10.546875 C 8.390625 -11.078125 8.109375 -11.546875 7.609375 -11.953125 C 7.117188 -12.359375 6.46875 -12.5625 5.65625 -12.5625 C 4.894531 -12.5625 4.273438 -12.363281 3.796875 -11.96875 C 3.316406 -11.570312 3.078125 -11.019531 3.078125 -10.3125 C 3.078125 -9.8125 3.21875 -9.398438 3.5 -9.078125 C 3.789062 -8.753906 4.144531 -8.507812 4.5625 -8.34375 C 4.988281 -8.175781 5.582031 -7.988281 6.34375 -7.78125 C 7.257812 -7.53125 8 -7.28125 8.5625 -7.03125 C 9.125 -6.78125 9.601562 -6.398438 10 -5.890625 C 10.394531 -5.378906 10.59375 -4.679688 10.59375 -3.796875 C 10.59375 -3.117188 10.410156 -2.476562 10.046875 -1.875 C 9.691406 -1.28125 9.160156 -0.796875 8.453125 -0.421875 C 7.753906 -0.046875 6.921875 0.140625 5.953125 0.140625 Z M 5.953125 0.140625 "/></g></g></g><g fill="#545454" fill-opacity="1"><g transform="translate(232.534519, 131.819509)"><g><path d="M 3.90625 -13.9375 L 3.6875 -3.9375 L 2.15625 -3.9375 L 1.9375 -13.9375 Z M 3 0.125 C 2.65625 0.125 2.363281 0.00390625 2.125 -0.234375 C 1.882812 -0.472656 1.765625 -0.769531 1.765625 -1.125 C 1.765625 -1.46875 1.882812 -1.757812 2.125 -2 C 2.363281 -2.238281 2.65625 -2.359375 3 -2.359375 C 3.332031 -2.359375 3.613281 -2.238281 3.84375 -2 C 4.082031 -1.757812 4.203125 -1.46875 4.203125 -1.125 C 4.203125 -0.769531 4.082031 -0.472656 3.84375 -0.234375 C 3.613281 0.00390625 3.332031 0.125 3 0.125 Z M 3 0.125 "/></g></g></g><g clip-path="url(#134af58880)"><g clip-path="url(#a8399fceb7)"><path fill="#fff2d2" d="M 290.394531 194.5625 L 333.261719 194.5625 L 333.261719 198.640625 L 290.394531 198.640625 Z M 290.394531 194.5625 " fill-opacity="1" fill-rule="nonzero"/></g></g><g clip-path="url(#ee97d28362)"><path fill="#279083" d="M 291.574219 195.171875 C 296.464844 195.820312 300.953125 198.96875 303.445312 203.433594 C 315.101562 207.621094 328.191406 208.976562 337.9375 216.617188 C 343.117188 220.679688 346.917969 226.222656 350.335938 231.847656 C 359.066406 246.21875 365.867188 261.757812 370.308594 277.597656 C 371.421875 277.898438 372.460938 278.472656 373.308594 279.261719 C 373.878906 283.425781 374.449219 287.589844 374.921875 292.453125 C 361.039062 297.808594 345.835938 299.710938 332.574219 297.304688 C 333.113281 317.578125 333.648438 337.851562 333.671875 359.25 C 298.921875 359.515625 264.167969 359.304688 229.199219 359.519531 C 231.542969 332.480469 232.191406 305.289062 231.28125 277.890625 C 229.683594 281.054688 228.089844 284.214844 226.183594 287.824219 C 226.757812 288.332031 226.890625 289.199219 226.710938 289.945312 C 226.53125 290.6875 226.085938 291.339844 225.644531 291.964844 C 223.433594 295.082031 221.019531 298.058594 218.019531 301.214844 C 209.605469 298.140625 201.917969 293.097656 195.707031 286.34375 C 194.699219 285.382812 193.695312 284.425781 191.839844 282.910156 C 198.066406 267.761719 204.289062 252.617188 210.511719 237.46875 C 213.070312 231.25 215.699219 224.90625 220.164062 219.878906 C 229.0625 209.855469 243.308594 206.964844 257.253906 205.074219 C 257.523438 202.203125 259.5 199.707031 261.933594 198.15625 C 264.363281 196.609375 267.214844 195.871094 270.039062 195.289062 C 275.570312 194.140625 281.160156 193.78125 291.574219 195.167969 Z M 291.574219 195.171875 " fill-opacity="1" fill-rule="nonzero"/></g><g clip-path="url(#e7231ef868)"><path fill="#6b2537" d="M 309.820312 159.175781 C 313.230469 157.042969 315.289062 152.921875 314.726562 148.636719 C 316.503906 148.140625 317.96875 146.652344 318.433594 144.867188 C 318.898438 143.085938 318.347656 141.070312 316.492188 139.90625 C 318.351562 137.890625 319.09375 134.902344 318.390625 132.25 C 317.691406 129.601562 315.570312 127.371094 312.355469 126.558594 C 312.605469 122.609375 310.984375 118.582031 308.070312 115.90625 C 305.15625 113.226562 301.007812 111.957031 296.390625 112.558594 C 294.066406 109.425781 290.40625 107.320312 286.53125 106.886719 C 282.65625 106.453125 278.621094 107.703125 275.492188 111.519531 C 274.089844 110.929688 272.691406 110.339844 269.851562 109.472656 C 265.308594 108.957031 260.582031 110.320312 257.011719 113.171875 C 253.441406 116.027344 251.070312 120.339844 250.53125 125.664062 C 248.785156 126.597656 247.398438 128.175781 246.691406 130.023438 C 245.464844 133.242188 246.339844 136.835938 246.847656 140.199219 C 245.441406 144.582031 245.0625 149.660156 247.539062 153.542969 C 249.128906 156.035156 251.734375 157.746094 254.496094 158.804688 C 262.339844 161.8125 271.351562 160 279.304688 162.703125 C 282.894531 163.921875 286.179688 166.035156 289.890625 166.816406 C 295.15625 167.929688 300.304688 165.117188 309.820312 159.175781 Z M 309.820312 159.175781 " fill-opacity="1" fill-rule="nonzero"/></g><path fill="#ffad95" d="M 256.144531 156.015625 C 255.8125 154.683594 254.707031 153.574219 253.371094 153.242188 C 252.035156 152.910156 250.539062 153.371094 249.621094 154.394531 C 248.613281 155.515625 248.363281 157.144531 248.496094 158.644531 C 248.886719 163.027344 252.484375 166.921875 256.820312 167.660156 C 257.714844 176.128906 263.050781 183.792969 270.496094 187.550781 C 277.941406 191.308594 287.273438 191.050781 294.496094 186.882812 C 301.722656 182.71875 306.621094 174.773438 307.671875 166.617188 C 310.105469 166.804688 312.328125 165.027344 313.523438 162.898438 C 314.40625 161.332031 314.878906 159.480469 314.53125 157.714844 C 314.183594 155.953125 312.914062 154.324219 311.183594 153.835938 C 309.453125 153.347656 307.359375 154.230469 306.53125 156.007812 C 305.507812 153.453125 305.957031 150.585938 306.214844 147.851562 C 306.46875 145.113281 306.4375 142.09375 304.710938 139.957031 C 303.945312 139.011719 302.910156 138.328125 301.953125 137.574219 C 299.285156 135.472656 297.152344 132.722656 294.644531 128.933594 C 292.28125 131.898438 288.863281 134 285.152344 134.761719 C 281.441406 135.523438 277.464844 134.945312 273.679688 132.472656 C 272.945312 134.082031 271.574219 135.332031 270.050781 136.226562 C 268.523438 137.117188 266.835938 137.683594 265.160156 138.246094 C 262.566406 139.117188 259.949219 139.992188 257.671875 140.746094 C 257.394531 145.949219 256.710938 151.132812 256.144531 156.015625 Z M 256.144531 156.015625 " fill-opacity="1" fill-rule="nonzero"/><path fill="#6b2537" d="M 281.269531 166.847656 C 281.542969 166.847656 281.828125 166.789062 282.101562 166.667969 C 282.804688 166.367188 283.371094 165.726562 283.582031 164.996094 C 283.914062 163.847656 283.539062 162.660156 283.265625 161.792969 L 281.054688 154.847656 C 280.9375 154.480469 280.546875 154.273438 280.175781 154.394531 C 279.808594 154.511719 279.605469 154.902344 279.722656 155.273438 L 281.933594 162.21875 C 282.21875 163.121094 282.4375 163.921875 282.242188 164.609375 C 282.144531 164.9375 281.867188 165.25 281.550781 165.382812 C 281.363281 165.464844 281.195312 165.46875 281.054688 165.398438 C 280.710938 165.21875 280.289062 165.351562 280.113281 165.695312 C 279.933594 166.039062 280.070312 166.460938 280.410156 166.636719 C 280.679688 166.777344 280.96875 166.847656 281.269531 166.847656 Z M 281.269531 166.847656 " fill-opacity="1" fill-rule="nonzero"/><path fill="#6b2537" d="M 254.199219 163.164062 C 254.464844 163.164062 254.722656 163.011719 254.835938 162.75 C 255.765625 160.648438 254.992188 158.007812 253.082031 156.738281 C 252.761719 156.523438 252.328125 156.609375 252.113281 156.933594 C 251.898438 157.253906 251.988281 157.6875 252.308594 157.902344 C 253.648438 158.792969 254.210938 160.710938 253.558594 162.183594 C 253.402344 162.535156 253.5625 162.949219 253.917969 163.105469 C 254.007812 163.144531 254.105469 163.164062 254.199219 163.164062 Z M 254.199219 163.164062 " fill-opacity="1" fill-rule="nonzero"/><path fill="#6b2537" d="M 308.445312 162.542969 C 308.769531 162.542969 309.0625 162.3125 309.128906 161.980469 C 309.421875 160.539062 310.15625 159.175781 311.207031 158.140625 C 311.480469 157.871094 311.484375 157.429688 311.214844 157.152344 C 310.941406 156.878906 310.5 156.875 310.222656 157.144531 C 308.980469 158.371094 308.105469 159.988281 307.757812 161.703125 C 307.683594 162.082031 307.925781 162.449219 308.304688 162.527344 C 308.351562 162.535156 308.398438 162.542969 308.445312 162.542969 Z M 308.445312 162.542969 " fill-opacity="1" fill-rule="nonzero"/><path fill="#6b2537" d="M 282.394531 175.929688 C 285.105469 175.929688 287.789062 175.082031 290.003906 173.503906 C 290.320312 173.28125 290.394531 172.847656 290.167969 172.53125 C 289.945312 172.214844 289.507812 172.140625 289.191406 172.363281 C 287.082031 173.867188 284.492188 174.632812 281.902344 174.519531 C 279.3125 174.410156 276.800781 173.425781 274.820312 171.753906 C 274.527344 171.503906 274.085938 171.539062 273.835938 171.832031 C 273.585938 172.128906 273.621094 172.570312 273.917969 172.820312 C 276.128906 174.695312 278.945312 175.792969 281.84375 175.917969 C 282.027344 175.925781 282.210938 175.929688 282.394531 175.929688 Z M 282.394531 175.929688 " fill-opacity="1" fill-rule="nonzero"/><path fill="#ffad95" d="M 293.992188 183.136719 C 294.726562 189.523438 295.460938 195.90625 296.605469 202.34375 C 292.667969 208.925781 287.398438 214.707031 280.96875 219.382812 C 275.722656 213.925781 271.039062 207.933594 266.914062 201.730469 C 267.824219 195.285156 268.550781 188.8125 268.976562 182.558594 C 275.3125 178.496094 284.023438 178.503906 293.992188 183.136719 Z M 293.992188 183.136719 " fill-opacity="1" fill-rule="nonzero"/><path fill="#6b2537" d="M 298.132812 223.949219 C 298.152344 223.949219 298.175781 223.949219 298.195312 223.945312 C 298.433594 223.921875 298.648438 223.78125 298.757812 223.566406 C 301.039062 219.074219 302.832031 213.980469 304.234375 207.988281 C 304.320312 207.613281 304.089844 207.234375 303.710938 207.148438 C 303.335938 207.0625 302.960938 207.292969 302.871094 207.671875 C 301.597656 213.101562 300.003906 217.777344 298.011719 221.917969 C 296.261719 219.582031 294.492188 217.195312 292.988281 214.945312 C 292.777344 214.625 292.347656 214.539062 292.027344 214.746094 L 284.042969 219.945312 C 283.71875 220.15625 283.628906 220.589844 283.839844 220.914062 C 284.050781 221.238281 284.484375 221.328125 284.808594 221.117188 L 292.210938 216.292969 C 293.847656 218.703125 295.742188 221.222656 297.574219 223.667969 C 297.707031 223.84375 297.914062 223.949219 298.132812 223.949219 Z M 298.132812 223.949219 " fill-opacity="1" fill-rule="nonzero"/><path fill="#6b2537" d="M 263.109375 222.1875 C 263.273438 222.1875 263.429688 222.132812 263.554688 222.027344 C 266.253906 219.789062 268.503906 217.636719 270.660156 215.546875 C 272.65625 217.636719 275.148438 219.765625 277.570312 221.828125 C 277.863281 222.078125 278.304688 222.046875 278.554688 221.75 C 278.804688 221.457031 278.769531 221.015625 278.476562 220.765625 C 275.886719 218.554688 273.210938 216.273438 271.203125 214.078125 C 271.078125 213.9375 270.898438 213.855469 270.707031 213.847656 C 270.519531 213.84375 270.335938 213.914062 270.203125 214.046875 C 268.078125 216.105469 265.886719 218.230469 263.292969 220.425781 C 261.121094 216.691406 259.613281 212.5 258.917969 208.246094 C 258.855469 207.863281 258.496094 207.605469 258.117188 207.667969 C 257.734375 207.730469 257.476562 208.089844 257.539062 208.472656 C 258.308594 213.167969 260.027344 217.796875 262.515625 221.855469 C 262.621094 222.027344 262.800781 222.144531 263 222.179688 C 263.039062 222.183594 263.074219 222.1875 263.113281 222.1875 Z M 263.109375 222.1875 " fill-opacity="1" fill-rule="nonzero"/><g clip-path="url(#5746d9a0c5)"><path fill="#6b2537" d="M 282.113281 359.3125 C 282.5 359.3125 282.8125 359 282.8125 358.613281 L 283.0625 225.785156 C 283.0625 225.398438 282.75 225.085938 282.363281 225.085938 C 281.976562 225.085938 281.664062 225.398438 281.664062 225.78125 L 281.414062 358.609375 C 281.414062 358.996094 281.726562 359.308594 282.113281 359.3125 Z M 282.113281 359.3125 " fill-opacity="1" fill-rule="nonzero"/></g><path fill="#fff2d2" d="M 280.132812 323.589844 L 317.503906 328.835938 C 320.226562 329.21875 323.035156 327.363281 323.777344 324.691406 L 337.179688 276.527344 C 337.921875 273.855469 336.320312 271.382812 333.597656 271 L 296.226562 265.753906 C 293.503906 265.371094 290.695312 267.226562 289.953125 269.898438 L 276.550781 318.0625 C 275.804688 320.734375 277.410156 323.207031 280.132812 323.589844 Z M 280.132812 323.589844 " fill-opacity="1" fill-rule="nonzero"/><path fill="#ffad95" d="M 308.144531 300.992188 C 304.808594 297.773438 299.945312 296.847656 295.375 296.066406 C 292.957031 295.652344 290.539062 295.242188 288.117188 294.824219 C 287.460938 294.714844 286.734375 294.613281 286.171875 294.976562 C 285.484375 295.417969 285.34375 296.414062 285.636719 297.179688 C 285.929688 297.941406 286.546875 298.527344 287.148438 299.085938 C 282.578125 298.464844 278.289062 297.753906 274 297.046875 C 273.125 296.902344 272.195312 296.761719 271.367188 297.089844 C 270.542969 297.417969 269.90625 298.398438 270.273438 299.207031 C 268.328125 299.492188 267.867188 300.914062 268.136719 302.074219 C 268.40625 303.234375 269.210938 304.1875 269.988281 305.089844 C 270.746094 307.535156 272.339844 309.625 274.457031 310.839844 C 276.582031 315.210938 280.550781 318.324219 284.96875 319.878906 C 289.390625 321.429688 294.226562 321.53125 298.851562 320.765625 C 303.472656 320 307.917969 318.40625 312.257812 316.636719 C 324.113281 319.171875 336.667969 319.480469 348.777344 317.289062 C 355.269531 316.117188 361.871094 314.101562 366.757812 309.675781 C 371.648438 305.25 374.375 297.902344 371.808594 291.828125 C 361.761719 289.78125 351.289062 289.679688 341.191406 292.246094 C 330.429688 295.578125 319.667969 298.914062 308.144531 300.992188 Z M 308.144531 300.992188 " fill-opacity="1" fill-rule="nonzero"/><path fill="#6b2537" d="M 294.109375 300.746094 C 294.464844 300.746094 294.769531 300.476562 294.804688 300.117188 C 294.847656 299.734375 294.566406 299.390625 294.183594 299.347656 L 287.359375 298.636719 C 286.976562 298.59375 286.632812 298.875 286.59375 299.257812 C 286.550781 299.644531 286.832031 299.988281 287.214844 300.027344 L 294.039062 300.742188 C 294.0625 300.742188 294.085938 300.746094 294.109375 300.746094 Z M 294.109375 300.746094 " fill-opacity="1" fill-rule="nonzero"/><path fill="#6b2537" d="M 289.464844 305.914062 C 289.820312 305.914062 290.125 305.640625 290.160156 305.277344 C 290.191406 304.890625 289.910156 304.550781 289.523438 304.515625 C 282.996094 303.929688 276.519531 301.933594 270.796875 298.746094 C 270.457031 298.558594 270.03125 298.679688 269.84375 299.015625 C 269.65625 299.351562 269.777344 299.777344 270.113281 299.96875 C 276.007812 303.253906 282.679688 305.308594 289.398438 305.910156 C 289.421875 305.914062 289.441406 305.914062 289.464844 305.914062 Z M 289.464844 305.914062 " fill-opacity="1" fill-rule="nonzero"/><path fill="#6b2537" d="M 285.855469 310.84375 C 286.203125 310.84375 286.507812 310.578125 286.546875 310.222656 C 286.589844 309.839844 286.316406 309.492188 285.929688 309.449219 C 280.324219 308.816406 274.800781 306.953125 269.957031 304.0625 C 269.625 303.863281 269.195312 303.972656 269 304.304688 C 268.800781 304.636719 268.910156 305.066406 269.242188 305.265625 C 274.253906 308.253906 279.972656 310.183594 285.773438 310.839844 C 285.800781 310.839844 285.828125 310.84375 285.855469 310.84375 Z M 285.855469 310.84375 " fill-opacity="1" fill-rule="nonzero"/><path fill="#6b2537" d="M 286.785156 315.945312 C 287.132812 315.945312 287.433594 315.683594 287.476562 315.332031 C 287.527344 314.949219 287.253906 314.597656 286.871094 314.550781 C 282.484375 313.996094 278.242188 312.375 274.601562 309.863281 C 274.28125 309.644531 273.847656 309.726562 273.628906 310.042969 C 273.410156 310.359375 273.488281 310.796875 273.804688 311.015625 C 277.628906 313.652344 282.085938 315.355469 286.695312 315.9375 C 286.722656 315.941406 286.753906 315.941406 286.785156 315.941406 Z M 286.785156 315.945312 " fill-opacity="1" fill-rule="nonzero"/><path fill="#6b2537" d="M 347.824219 281.566406 C 347.921875 281.566406 348.019531 281.546875 348.113281 281.503906 C 353.917969 278.847656 360.34375 277.777344 366.695312 278.402344 C 367.078125 278.4375 367.421875 278.160156 367.460938 277.773438 C 367.496094 277.390625 367.21875 277.046875 366.832031 277.011719 C 360.234375 276.359375 353.5625 277.476562 347.53125 280.230469 C 347.183594 280.390625 347.027344 280.808594 347.1875 281.160156 C 347.304688 281.414062 347.558594 281.566406 347.824219 281.566406 Z M 347.824219 281.566406 " fill-opacity="1" fill-rule="nonzero"/><path fill="#6b2537" d="M 329.472656 270.785156 C 329.484375 270.785156 329.5 270.785156 329.511719 270.785156 C 329.898438 270.765625 330.191406 270.433594 330.171875 270.050781 L 329.191406 252.132812 C 329.171875 251.75 328.84375 251.453125 328.457031 251.472656 C 328.070312 251.496094 327.773438 251.824219 327.796875 252.210938 L 328.773438 270.125 C 328.796875 270.5 329.105469 270.785156 329.472656 270.785156 Z M 329.472656 270.785156 " fill-opacity="1" fill-rule="nonzero"/><path fill="#6b2537" d="M 232.109375 272.621094 C 232.484375 272.621094 232.796875 272.324219 232.808594 271.945312 C 233.03125 264.523438 233.707031 257.039062 234.820312 249.695312 C 234.875 249.316406 234.613281 248.957031 234.234375 248.902344 C 233.851562 248.84375 233.492188 249.105469 233.4375 249.488281 C 232.316406 256.882812 231.636719 264.425781 231.410156 271.902344 C 231.398438 272.289062 231.703125 272.613281 232.085938 272.625 C 232.09375 272.625 232.101562 272.625 232.109375 272.625 Z M 232.109375 272.621094 " fill-opacity="1" fill-rule="nonzero"/><path fill="#6b2537" d="M 222.613281 285.253906 C 222.773438 285.253906 222.933594 285.203125 223.0625 285.089844 C 223.359375 284.839844 223.398438 284.402344 223.148438 284.105469 C 218.699219 278.816406 213.089844 274.359375 206.929688 271.21875 C 206.585938 271.042969 206.164062 271.179688 205.988281 271.523438 C 205.8125 271.867188 205.949219 272.289062 206.292969 272.464844 C 212.289062 275.519531 217.746094 279.859375 222.078125 285.003906 C 222.21875 285.167969 222.414062 285.253906 222.613281 285.253906 Z M 222.613281 285.253906 " fill-opacity="1" fill-rule="nonzero"/><g clip-path="url(#0d44008463)"><path fill="#6b2537" d="M 176.832031 203.882812 L 181.308594 202.429688 L 162.074219 145.902344 C 161.8125 145.132812 160.984375 144.71875 160.210938 144.964844 C 159.441406 145.21875 159.011719 146.039062 159.25 146.816406 L 176.835938 203.878906 Z M 176.832031 203.882812 " fill-opacity="1" fill-rule="nonzero"/></g><path fill="#ffad95" d="M 175.933594 234.921875 C 178.183594 252.386719 180.4375 269.871094 184.003906 287.113281 C 185.21875 292.96875 186.6875 299.023438 190.46875 303.660156 C 194.246094 308.296875 201.007812 311.050781 206.285156 308.679688 C 209.390625 308.789062 212.082031 306.195312 213.0625 303.25 C 214.046875 300.308594 213.6875 297.097656 213.195312 294.03125 C 209.59375 271.636719 199.578125 250.863281 189.234375 230.203125 C 191.195312 223.367188 193.027344 216.230469 191.851562 209.214844 C 190.769531 202.738281 187.222656 196.976562 183.75 191.402344 C 183.304688 190.6875 182.84375 189.957031 182.175781 189.441406 C 181.503906 188.925781 180.570312 188.671875 179.800781 189.015625 C 179.03125 189.363281 178.613281 190.441406 178.863281 191.429688 C 177.484375 190.6875 175.808594 190.515625 174.308594 190.964844 C 172.808594 191.414062 171.503906 192.472656 170.640625 193.640625 C 168.417969 194.59375 166.769531 196.777344 166.390625 198.710938 C 164.597656 199.894531 163.371094 201.898438 163.179688 203.195312 C 160.996094 208.660156 161.855469 215.011719 164.4375 220.308594 C 167.019531 225.601562 171.164062 229.972656 175.9375 234.925781 Z M 175.933594 234.921875 " fill-opacity="1" fill-rule="nonzero"/><path fill="#6b2537" d="M 178.695312 234.308594 C 181.199219 234.308594 183.683594 232.949219 185 230.820312 C 185.203125 230.492188 185.101562 230.058594 184.773438 229.855469 C 184.445312 229.652344 184.015625 229.753906 183.8125 230.082031 C 182.675781 231.921875 180.464844 233.050781 178.308594 232.898438 C 177.921875 232.871094 177.589844 233.160156 177.5625 233.542969 C 177.535156 233.929688 177.824219 234.265625 178.210938 234.292969 C 178.371094 234.304688 178.535156 234.308594 178.695312 234.308594 Z M 178.695312 234.308594 " fill-opacity="1" fill-rule="nonzero"/><path fill="#6b2537" d="M 182.925781 207.960938 C 183.011719 207.960938 183.09375 207.945312 183.175781 207.914062 C 184.460938 207.421875 185.414062 206.085938 185.609375 204.507812 C 185.78125 203.109375 185.402344 201.761719 185.007812 200.628906 C 183.714844 196.902344 181.542969 193.472656 178.734375 190.707031 C 178.457031 190.4375 178.015625 190.441406 177.742188 190.714844 C 177.472656 190.988281 177.476562 191.433594 177.75 191.703125 C 180.410156 194.320312 182.460938 197.5625 183.683594 201.085938 C 184.027344 202.070312 184.355469 203.222656 184.21875 204.335938 C 184.109375 205.214844 183.589844 206.257812 182.675781 206.605469 C 182.3125 206.746094 182.132812 207.148438 182.269531 207.507812 C 182.378906 207.789062 182.640625 207.960938 182.925781 207.960938 Z M 182.925781 207.960938 " fill-opacity="1" fill-rule="nonzero"/><path fill="#6b2537" d="M 179.207031 212.449219 C 179.375 212.449219 179.546875 212.386719 179.683594 212.261719 C 181.226562 210.832031 182.1875 208.765625 182.382812 206.445312 C 182.574219 204.234375 182.066406 201.984375 180.960938 200.117188 C 178.925781 196.6875 175.085938 194.265625 170.417969 193.472656 C 170.039062 193.40625 169.675781 193.664062 169.613281 194.046875 C 169.546875 194.425781 169.804688 194.785156 170.183594 194.851562 C 174.382812 195.566406 177.960938 197.800781 179.757812 200.832031 C 181.785156 204.25 181.335938 208.820312 178.730469 211.234375 C 178.449219 211.496094 178.429688 211.9375 178.695312 212.222656 C 178.832031 212.371094 179.019531 212.445312 179.207031 212.445312 Z M 179.207031 212.449219 " fill-opacity="1" fill-rule="nonzero"/><path fill="#6b2537" d="M 175.101562 214.773438 C 175.152344 214.773438 175.203125 214.769531 175.253906 214.757812 C 177.121094 214.34375 178.703125 212.773438 179.289062 210.753906 C 179.777344 209.070312 179.597656 207.09375 178.785156 205.191406 C 177.824219 202.945312 176.035156 201.023438 173.75 199.78125 C 171.460938 198.539062 168.875 198.085938 166.46875 198.503906 C 166.089844 198.570312 165.832031 198.933594 165.902344 199.3125 C 165.96875 199.695312 166.328125 199.949219 166.710938 199.882812 C 171.035156 199.128906 175.773438 201.703125 177.496094 205.738281 C 178.183594 207.347656 178.339844 208.988281 177.941406 210.363281 C 177.503906 211.875 176.300781 213.089844 174.949219 213.390625 C 174.574219 213.476562 174.335938 213.847656 174.417969 214.226562 C 174.492188 214.550781 174.78125 214.773438 175.101562 214.773438 Z M 175.101562 214.773438 " fill-opacity="1" fill-rule="nonzero"/><path fill="#6b2537" d="M 172.140625 218.109375 C 173.03125 218.109375 173.929688 217.742188 174.546875 217.121094 C 175.714844 215.949219 175.917969 214.265625 175.886719 213.0625 C 175.800781 209.976562 174.179688 206.945312 171.664062 205.152344 C 169.152344 203.359375 165.757812 202.820312 162.808594 203.746094 C 162.441406 203.863281 162.234375 204.253906 162.351562 204.625 C 162.46875 204.992188 162.859375 205.199219 163.230469 205.082031 C 165.765625 204.285156 168.6875 204.75 170.855469 206.292969 C 173.019531 207.835938 174.414062 210.445312 174.488281 213.105469 C 174.511719 214.035156 174.371094 215.316406 173.554688 216.132812 C 173.191406 216.5 172.632812 216.722656 172.101562 216.710938 C 171.824219 216.703125 171.433594 216.632812 171.148438 216.324219 C 170.707031 215.839844 170.675781 215.003906 170.699219 214.332031 C 170.703125 214.230469 170.707031 214.128906 170.710938 214.027344 C 170.746094 213.207031 170.785156 212.28125 170.394531 211.425781 C 170.097656 210.769531 169.492188 210.234375 168.816406 210.027344 C 168.265625 209.855469 167.710938 209.917969 167.253906 210.195312 C 166.925781 210.394531 166.820312 210.828125 167.023438 211.15625 C 167.222656 211.484375 167.65625 211.589844 167.984375 211.390625 C 168.097656 211.320312 168.238281 211.3125 168.40625 211.363281 C 168.703125 211.453125 168.988281 211.710938 169.121094 212 C 169.371094 212.554688 169.34375 213.242188 169.3125 213.96875 C 169.308594 214.074219 169.304688 214.179688 169.300781 214.285156 C 169.269531 215.222656 169.332031 216.40625 170.117188 217.261719 C 170.597656 217.789062 171.289062 218.089844 172.066406 218.105469 C 172.09375 218.105469 172.113281 218.105469 172.140625 218.105469 Z M 172.140625 218.109375 " fill-opacity="1" fill-rule="nonzero"/><path fill="#6b2537" d="M 181.304688 220.785156 C 181.417969 220.785156 181.535156 220.753906 181.644531 220.695312 C 181.980469 220.507812 182.101562 220.082031 181.917969 219.746094 C 180.515625 217.222656 179.945312 214.257812 180.316406 211.394531 C 180.367188 211.011719 180.09375 210.664062 179.710938 210.613281 C 179.328125 210.5625 178.976562 210.832031 178.929688 211.214844 C 178.519531 214.375 179.148438 217.644531 180.691406 220.421875 C 180.820312 220.652344 181.058594 220.785156 181.304688 220.785156 Z M 181.304688 220.785156 " fill-opacity="1" fill-rule="nonzero"/><path fill="#6b2537" d="M 276.085938 144.785156 C 276.132812 146.492188 273.242188 146.453125 269.679688 146.550781 C 266.113281 146.652344 263.230469 146.851562 263.179688 145.144531 C 263.132812 143.433594 265.96875 141.46875 269.535156 141.367188 C 273.097656 141.269531 276.039062 143.078125 276.085938 144.785156 Z M 276.085938 144.785156 " fill-opacity="1" fill-rule="nonzero"/><path fill="#6b2537" d="M 270.015625 150.355469 C 269.625 150.359375 269.25 150.457031 268.886719 150.644531 C 268.527344 150.828125 268.210938 151.09375 267.933594 151.4375 C 267.660156 151.78125 267.449219 152.175781 267.304688 152.621094 C 267.15625 153.066406 267.085938 153.53125 267.089844 154.011719 C 267.09375 154.492188 267.171875 154.957031 267.328125 155.398438 C 267.480469 155.84375 267.699219 156.234375 267.976562 156.570312 C 268.257812 156.910156 268.582031 157.167969 268.945312 157.351562 C 269.308594 157.53125 269.6875 157.621094 270.078125 157.617188 C 270.46875 157.613281 270.847656 157.519531 271.207031 157.332031 C 271.570312 157.144531 271.886719 156.878906 272.160156 156.535156 C 272.4375 156.195312 272.644531 155.800781 272.792969 155.355469 C 272.9375 154.90625 273.011719 154.445312 273.007812 153.960938 C 273 153.480469 272.921875 153.019531 272.769531 152.574219 C 272.617188 152.132812 272.398438 151.742188 272.117188 151.402344 C 271.835938 151.066406 271.515625 150.804688 271.152344 150.625 C 270.789062 150.441406 270.410156 150.351562 270.015625 150.355469 Z M 270.015625 150.355469 " fill-opacity="1" fill-rule="nonzero"/><path fill="#6b2537" d="M 286.976562 144.863281 C 286.875 146.570312 289.769531 146.621094 293.328125 146.835938 C 296.886719 147.046875 299.761719 147.339844 299.867188 145.632812 C 299.96875 143.925781 297.195312 141.871094 293.636719 141.65625 C 290.078125 141.445312 287.078125 143.15625 286.976562 144.863281 Z M 286.976562 144.863281 " fill-opacity="1" fill-rule="nonzero"/><path fill="#6b2537" d="M 289.257812 153.9375 C 289.257812 154.417969 289.328125 154.882812 289.476562 155.328125 C 289.625 155.773438 289.835938 156.167969 290.113281 156.507812 C 290.386719 156.851562 290.707031 157.117188 291.070312 157.300781 C 291.429688 157.488281 291.808594 157.582031 292.199219 157.582031 C 292.589844 157.585938 292.96875 157.496094 293.332031 157.3125 C 293.695312 157.128906 294.015625 156.867188 294.296875 156.53125 C 294.574219 156.191406 294.789062 155.796875 294.941406 155.355469 C 295.09375 154.910156 295.171875 154.449219 295.175781 153.964844 C 295.175781 153.484375 295.105469 153.019531 294.957031 152.574219 C 294.808594 152.128906 294.597656 151.738281 294.320312 151.394531 C 294.042969 151.054688 293.726562 150.789062 293.363281 150.601562 C 293.003906 150.417969 292.625 150.324219 292.234375 150.320312 C 291.839844 150.320312 291.464844 150.410156 291.101562 150.59375 C 290.738281 150.773438 290.414062 151.035156 290.136719 151.375 C 289.859375 151.714844 289.640625 152.105469 289.488281 152.550781 C 289.335938 152.992188 289.261719 153.457031 289.257812 153.9375 Z M 289.257812 153.9375 " fill-opacity="1" fill-rule="nonzero"/><path fill="#6b2537" d="M 281.851562 190.898438 C 285.261719 190.898438 288.671875 190.25 291.832031 188.964844 C 292.1875 188.816406 292.359375 188.410156 292.214844 188.050781 C 292.070312 187.695312 291.660156 187.523438 291.304688 187.667969 C 285.589844 189.996094 279 190.109375 273.226562 187.976562 C 272.867188 187.839844 272.464844 188.027344 272.328125 188.386719 C 272.195312 188.75 272.378906 189.152344 272.742188 189.289062 C 275.648438 190.359375 278.746094 190.894531 281.851562 190.894531 Z M 281.851562 190.898438 " fill-opacity="1" fill-rule="nonzero"/><g mask="url(#53f45d3c97)"><g transform="matrix(1, 0, 0, 1, 288, 245)"><g clip-path="url(#8ed63e53b4)"><g clip-path="url(#b4d7a4b5df)"><g clip-path="url(#b705dbe923)"><path fill="#a6a6a6" d="M 0.570312 0.550781 L 37.40625 0.550781 L 37.40625 15.46875 L 0.570312 15.46875 Z M 0.570312 0.550781 " fill-opacity="1" fill-rule="nonzero"/></g></g></g></g></g><g fill="#fff2d2" fill-opacity="1"><g transform="translate(291.841293, 256.824155)"><g><path d="M 3.484375 0.078125 C 2.953125 0.078125 2.472656 -0.015625 2.046875 -0.203125 C 1.617188 -0.390625 1.28125 -0.65625 1.03125 -1 C 0.789062 -1.34375 0.671875 -1.734375 0.671875 -2.171875 L 1.796875 -2.171875 C 1.835938 -1.796875 1.992188 -1.472656 2.265625 -1.203125 C 2.546875 -0.941406 2.953125 -0.8125 3.484375 -0.8125 C 3.992188 -0.8125 4.394531 -0.9375 4.6875 -1.1875 C 4.976562 -1.445312 5.125 -1.773438 5.125 -2.171875 C 5.125 -2.484375 5.035156 -2.738281 4.859375 -2.9375 C 4.691406 -3.132812 4.476562 -3.28125 4.21875 -3.375 C 3.96875 -3.476562 3.625 -3.585938 3.1875 -3.703125 C 2.644531 -3.847656 2.210938 -3.988281 1.890625 -4.125 C 1.566406 -4.269531 1.289062 -4.492188 1.0625 -4.796875 C 0.832031 -5.097656 0.71875 -5.5 0.71875 -6 C 0.71875 -6.445312 0.828125 -6.84375 1.046875 -7.1875 C 1.273438 -7.53125 1.59375 -7.796875 2 -7.984375 C 2.414062 -8.171875 2.890625 -8.265625 3.421875 -8.265625 C 4.179688 -8.265625 4.804688 -8.070312 5.296875 -7.6875 C 5.785156 -7.300781 6.0625 -6.796875 6.125 -6.171875 L 4.953125 -6.171875 C 4.910156 -6.484375 4.742188 -6.753906 4.453125 -6.984375 C 4.171875 -7.222656 3.789062 -7.34375 3.3125 -7.34375 C 2.863281 -7.34375 2.5 -7.226562 2.21875 -7 C 1.9375 -6.769531 1.796875 -6.445312 1.796875 -6.03125 C 1.796875 -5.738281 1.878906 -5.5 2.046875 -5.3125 C 2.222656 -5.125 2.429688 -4.976562 2.671875 -4.875 C 2.921875 -4.78125 3.265625 -4.671875 3.703125 -4.546875 C 4.242188 -4.398438 4.675781 -4.253906 5 -4.109375 C 5.332031 -3.960938 5.613281 -3.738281 5.84375 -3.4375 C 6.082031 -3.144531 6.203125 -2.738281 6.203125 -2.21875 C 6.203125 -1.820312 6.097656 -1.445312 5.890625 -1.09375 C 5.679688 -0.75 5.367188 -0.46875 4.953125 -0.25 C 4.535156 -0.03125 4.046875 0.078125 3.484375 0.078125 Z M 3.484375 0.078125 "/></g></g></g><g fill="#fff2d2" fill-opacity="1"><g transform="translate(298.703714, 256.824155)"><g><path d="M 5.015625 -8.15625 L 5.015625 -2.125 C 5.015625 -1.457031 4.804688 -0.921875 4.390625 -0.515625 C 3.972656 -0.117188 3.425781 0.078125 2.75 0.078125 C 2.0625 0.078125 1.507812 -0.125 1.09375 -0.53125 C 0.6875 -0.9375 0.484375 -1.5 0.484375 -2.21875 L 1.546875 -2.21875 C 1.554688 -1.8125 1.660156 -1.484375 1.859375 -1.234375 C 2.054688 -0.984375 2.351562 -0.859375 2.75 -0.859375 C 3.144531 -0.859375 3.441406 -0.976562 3.640625 -1.21875 C 3.835938 -1.457031 3.9375 -1.757812 3.9375 -2.125 L 3.9375 -8.15625 Z M 5.015625 -8.15625 "/></g></g></g><g fill="#fff2d2" fill-opacity="1"><g transform="translate(304.899764, 256.824155)"><g><path d="M 0.5 -4.078125 C 0.5 -4.878906 0.675781 -5.597656 1.03125 -6.234375 C 1.394531 -6.867188 1.882812 -7.363281 2.5 -7.71875 C 3.125 -8.082031 3.816406 -8.265625 4.578125 -8.265625 C 5.460938 -8.265625 6.238281 -8.046875 6.90625 -7.609375 C 7.570312 -7.179688 8.054688 -6.578125 8.359375 -5.796875 L 7.078125 -5.796875 C 6.847656 -6.285156 6.519531 -6.660156 6.09375 -6.921875 C 5.675781 -7.191406 5.171875 -7.328125 4.578125 -7.328125 C 4.003906 -7.328125 3.488281 -7.191406 3.03125 -6.921875 C 2.582031 -6.660156 2.226562 -6.285156 1.96875 -5.796875 C 1.71875 -5.304688 1.59375 -4.734375 1.59375 -4.078125 C 1.59375 -3.429688 1.71875 -2.863281 1.96875 -2.375 C 2.226562 -1.894531 2.582031 -1.519531 3.03125 -1.25 C 3.488281 -0.988281 4.003906 -0.859375 4.578125 -0.859375 C 5.171875 -0.859375 5.675781 -0.988281 6.09375 -1.25 C 6.519531 -1.507812 6.847656 -1.882812 7.078125 -2.375 L 8.359375 -2.375 C 8.054688 -1.59375 7.570312 -0.988281 6.90625 -0.5625 C 6.238281 -0.144531 5.460938 0.0625 4.578125 0.0625 C 3.816406 0.0625 3.125 -0.113281 2.5 -0.46875 C 1.882812 -0.820312 1.394531 -1.3125 1.03125 -1.9375 C 0.675781 -2.570312 0.5 -3.285156 0.5 -4.078125 Z M 0.5 -4.078125 "/></g></g></g><g fill="#fff2d2" fill-opacity="1"><g transform="translate(313.924961, 256.824155)"><g><path d="M 4.59375 0.078125 C 3.84375 0.078125 3.15625 -0.0976562 2.53125 -0.453125 C 1.90625 -0.804688 1.410156 -1.300781 1.046875 -1.9375 C 0.679688 -2.570312 0.5 -3.285156 0.5 -4.078125 C 0.5 -4.878906 0.679688 -5.597656 1.046875 -6.234375 C 1.410156 -6.867188 1.90625 -7.363281 2.53125 -7.71875 C 3.15625 -8.070312 3.84375 -8.25 4.59375 -8.25 C 5.363281 -8.25 6.0625 -8.070312 6.6875 -7.71875 C 7.3125 -7.363281 7.800781 -6.867188 8.15625 -6.234375 C 8.519531 -5.609375 8.703125 -4.890625 8.703125 -4.078125 C 8.703125 -3.273438 8.519531 -2.554688 8.15625 -1.921875 C 7.800781 -1.296875 7.3125 -0.804688 6.6875 -0.453125 C 6.0625 -0.0976562 5.363281 0.078125 4.59375 0.078125 Z M 4.59375 -0.84375 C 5.164062 -0.84375 5.679688 -0.972656 6.140625 -1.234375 C 6.597656 -1.503906 6.957031 -1.882812 7.21875 -2.375 C 7.476562 -2.863281 7.609375 -3.429688 7.609375 -4.078125 C 7.609375 -4.734375 7.476562 -5.304688 7.21875 -5.796875 C 6.957031 -6.285156 6.597656 -6.660156 6.140625 -6.921875 C 5.691406 -7.191406 5.175781 -7.328125 4.59375 -7.328125 C 4.019531 -7.328125 3.503906 -7.191406 3.046875 -6.921875 C 2.597656 -6.660156 2.242188 -6.285156 1.984375 -5.796875 C 1.722656 -5.304688 1.59375 -4.734375 1.59375 -4.078125 C 1.59375 -3.429688 1.722656 -2.863281 1.984375 -2.375 C 2.242188 -1.882812 2.601562 -1.503906 3.0625 -1.234375 C 3.519531 -0.972656 4.03125 -0.84375 4.59375 -0.84375 Z M 4.59375 -0.84375 "/></g></g></g><g clip-path="url(#f57a22cc43)"><g clip-path="url(#b370206402)"><path fill="#c9c160" d="M 329.285156 203.117188 L 333.265625 203.117188 L 333.265625 207.09375 L 329.285156 207.09375 Z M 329.285156 203.117188 " fill-opacity="1" fill-rule="nonzero"/></g></g><g clip-path="url(#b07e5faac3)"><g clip-path="url(#6594504a88)"><path fill="#fff2d2" d="M 337.5 207.09375 L 358.492188 207.09375 L 358.492188 210.84375 L 337.5 210.84375 Z M 337.5 207.09375 " fill-opacity="1" fill-rule="nonzero"/></g></g><g clip-path="url(#8cd4d4b534)"><g clip-path="url(#26388f2698)"><path fill="#c9c160" d="M 320.808594 183.519531 L 327.707031 183.519531 L 327.707031 190.421875 L 320.808594 190.421875 Z M 320.808594 183.519531 " fill-opacity="1" fill-rule="nonzero"/></g></g><g clip-path="url(#691c617357)"><g clip-path="url(#09f343bd24)"><path fill="#2a9038" d="M 344.015625 194.5625 L 347.992188 194.5625 L 347.992188 198.542969 L 344.015625 198.542969 Z M 344.015625 194.5625 " fill-opacity="1" fill-rule="nonzero"/></g></g><g clip-path="url(#dc6292641d)"><g clip-path="url(#e45733f2a2)"><path fill="#eeea20" d="M 341.285156 215.117188 L 345.265625 215.117188 L 345.265625 219.09375 L 341.285156 219.09375 Z M 341.285156 215.117188 " fill-opacity="1" fill-rule="nonzero"/></g></g><g clip-path="url(#ca7da8dd36)"><g clip-path="url(#14b153f68d)"><path fill="#c9c160" d="M 139.433594 246.992188 L 145.261719 246.992188 L 145.261719 252.890625 L 139.433594 252.890625 Z M 139.433594 246.992188 " fill-opacity="1" fill-rule="nonzero"/></g></g><g clip-path="url(#4965bb627f)"><g clip-path="url(#ef8fb7d2b1)"><path fill="#7e4b2e" d="M 153.023438 233.660156 L 156.773438 233.660156 L 156.773438 237.410156 L 153.023438 237.410156 Z M 153.023438 233.660156 " fill-opacity="1" fill-rule="nonzero"/></g></g><g clip-path="url(#1c83e2942d)"><g clip-path="url(#ee0ba818ff)"><path fill="#ced8cc" d="M 117.597656 224.015625 L 161.277344 224.015625 L 161.277344 227.765625 L 117.597656 227.765625 Z M 117.597656 224.015625 " fill-opacity="1" fill-rule="nonzero"/></g></g><g clip-path="url(#b4a4d26587)"><g clip-path="url(#2124887007)"><path fill="#ced8cc" d="M 358.488281 215.117188 L 362.46875 215.117188 L 362.46875 219.09375 L 358.488281 219.09375 Z M 358.488281 215.117188 " fill-opacity="1" fill-rule="nonzero"/></g></g><g clip-path="url(#0b18b2d471)"><g clip-path="url(#52497064b2)"><path fill="#ced8cc" d="M 112.179688 235.644531 L 132.101562 235.644531 L 132.101562 239.394531 L 112.179688 239.394531 Z M 112.179688 235.644531 " fill-opacity="1" fill-rule="nonzero"/></g></g></svg>